<svg width="149" height="112" viewBox="0 0 149 112" fill="none" xmlns="http://www.w3.org/2000/svg">
<g clip-path="url(#clip0_7_1942)">
<g opacity="0.5">
<path opacity="0.5" d="M131.674 105.895C134.469 113.841 12.2773 113.841 15.0815 105.895C12.2906 97.947 134.478 97.947 131.674 105.895Z" fill="#FFE2B3"/>
<g opacity="0.3">
<path opacity="0.8" d="M126.994 52.5586C125.799 122.445 20.9678 122.436 19.7822 52.5586C20.9773 -17.3297 125.809 -17.3184 126.994 52.5586Z" fill="#FFE2B3"/>
<path opacity="0.6" d="M62.8522 74.4875C62.1526 115.438 0.729773 115.43 0.0339355 74.4875C0.735446 33.5394 62.1582 33.547 62.8522 74.4875ZM83.9032 74.4875C84.6028 115.438 146.026 115.43 146.72 74.4875C146.02 33.5394 84.5971 33.547 83.9032 74.4875Z" fill="#FFE2B3"/>
<path opacity="0.5" d="M103.682 42.77C104.162 70.8267 146.245 70.8211 146.72 42.77C146.239 14.7151 104.158 14.7208 103.682 42.77ZM43.0738 42.77C42.5935 70.8267 0.510433 70.8211 0.0339355 42.77C0.514215 14.7151 42.5973 14.7208 43.0738 42.77Z" fill="#FFE2B3"/>
</g>
</g>
<g opacity="0.5">
<path opacity="0.8" d="M15.5049 70.5108C14.9206 70.3386 15.5805 69.8411 15.815 69.5081C18.2731 66.6059 21.601 62.8259 24.2899 59.7138C23.3104 60.7013 22.2307 61.7948 21.2002 62.8411C14.1076 70.0302 14.0452 70.0302 13.8561 70.0302C13.5441 70.0075 13.58 69.6727 13.7634 69.51C16.8644 65.8586 21.1378 61.1857 24.409 57.4227C21.5368 60.3173 17.5716 64.3943 14.845 67.1224C12.056 69.7711 12.3869 69.7711 11.8669 69.6235C11.6778 69.4343 11.8158 69.2792 12.3812 68.6057C15.5049 64.9827 19.9503 60.1621 23.3142 56.3405C20.5762 59.027 9.91929 70.0208 10.7513 68.81C10.7198 68.8106 10.6885 68.805 10.6593 68.7932C10.63 68.7815 10.6034 68.7641 10.5811 68.7419C10.392 68.5527 10.5092 68.4278 11.1351 67.69C14.1908 64.1559 18.4395 59.5378 21.7618 55.8108C20.6745 56.9081 19.4681 58.1321 18.3166 59.2994C10.2691 67.4686 9.80773 67.8584 9.58461 67.8602C9.11378 67.6919 9.2972 67.5462 9.98169 66.7251C13.1035 63.1192 17.4563 58.3857 20.839 54.5886C19.2299 56.1967 17.3069 58.134 15.5805 59.8859C8.66565 66.8405 8.64485 66.8405 8.47467 66.8405C8.44369 66.8417 8.41281 66.8362 8.38411 66.8245C8.35541 66.8127 8.32955 66.795 8.30828 66.7724C8.06435 66.3184 8.80935 65.87 9.14215 65.3459C11.6929 62.3548 15.0738 58.6316 17.9971 55.3681C15.6808 57.6213 8.92092 64.8048 7.5784 65.5957C7.51371 65.5949 7.45166 65.5699 7.40444 65.5257C7.18321 65.1473 7.65971 64.9411 7.88661 64.5797C11.0254 60.97 15.5144 56.0662 18.8536 52.3032C17.53 53.6275 15.9833 55.213 14.5046 56.7094C7.34204 64.0008 6.9582 64.3243 6.73697 64.3243C6.27182 64.1654 6.45712 64.0008 7.08678 63.2346C9.92307 59.9294 13.8334 55.6348 16.9193 52.1348C15.7129 53.3513 14.3326 54.7438 13.0203 56.0643C6.13378 63 6.10731 63 5.93713 63C5.55896 62.8827 5.62514 62.7294 6.07706 62.2167C9.00789 58.8265 13.026 54.3559 16.0287 50.8748C14.5481 52.2805 5.46442 61.6719 5.80099 61.0343C5.73815 61.0345 5.67773 61.0101 5.6327 60.9662C5.4058 60.6105 5.91255 60.3513 6.13756 59.9767C8.27613 57.3962 11.1068 54.1232 13.5119 51.3062C12.7348 52.0932 11.9085 52.9351 11.1446 53.7146C5.61569 59.2011 6.03924 59.1878 5.45118 59.0365C5.16188 58.6429 6.33989 57.6686 6.77479 56.997C8.07759 55.3832 9.98925 53.0562 11.4528 51.2646C3.93282 59.1367 4.8877 57.2921 8.66754 51.9097C7.93956 52.6419 7.92254 52.6419 7.82232 52.6419C7.77225 52.6418 7.72355 52.6255 7.68345 52.5955C7.64335 52.5655 7.61401 52.5233 7.59978 52.4753C7.58554 52.4273 7.58719 52.3759 7.60446 52.3289C7.62173 52.2819 7.65371 52.2417 7.69564 52.2143C7.8072 52.1159 8.42362 51.4954 8.87553 51.0394C9.94765 49.9459 9.94765 49.9459 10.0611 49.9459C10.6737 50.1351 9.89093 50.784 9.6697 51.2381C8.97953 52.2711 7.93199 53.7959 7.16619 54.9311C8.25155 53.9113 14.3761 47.4808 14.0168 48.1486C14.4139 48.2659 14.3118 48.4324 13.8806 48.9792C12.1297 51.1984 9.7718 54.0248 7.85447 56.3935C8.75641 55.4816 9.80584 54.4108 10.8023 53.3986C16.3671 47.7229 16.4239 47.7229 16.6111 47.7229C16.9117 47.7419 16.8909 48.0692 16.7094 48.2281C14.4649 50.9505 11.5114 54.3332 9.0476 57.2448C25.9217 39.9284 17.0044 50.7859 10.0327 58.4121L12.68 55.7408C20.1432 48.2224 20.1848 48.2224 20.3569 48.2224C20.8201 48.3832 20.6291 48.5497 19.9919 49.3254C17.1027 52.71 13.0695 57.1351 9.92118 60.6975C11.2164 59.3921 12.7348 57.8465 14.1813 56.3784C21.3306 49.1003 21.7126 48.7767 21.9338 48.7748C22.4122 48.964 22.242 49.0643 21.4592 50.0235C18.4338 53.5538 14.2456 58.1189 10.9006 61.8743C12.7405 60.0884 23.9608 48.5346 23.144 49.6811C23.1755 49.6805 23.2067 49.6862 23.2359 49.6979C23.2652 49.7096 23.2918 49.727 23.3142 49.7492C23.5297 50.0708 23.1345 50.2354 22.9511 50.5248C19.6043 54.3238 15.1532 59.1954 11.6683 63.1494C12.7631 62.0521 14.0168 60.7884 15.261 59.5397C24.3088 50.5702 23.889 50.5797 24.4865 50.7311C24.6756 50.9202 24.5527 51.0508 23.9041 51.8151C20.735 55.4778 16.2915 60.3097 12.8671 64.1559C14.4309 62.5875 16.3104 60.6805 17.9971 58.9684C25.1199 51.7394 25.171 51.7375 25.3714 51.7375C25.4349 51.737 25.496 51.7615 25.5416 51.8057C25.7307 51.9948 25.5964 52.1481 24.9611 52.8992C21.9338 56.3784 17.8307 60.847 14.5273 64.5494C15.5465 63.5221 16.6564 62.3984 17.721 61.3219C25.6153 53.3305 26.0276 52.9729 26.2393 52.9729C26.7158 53.1375 26.5097 53.3192 25.8347 54.1497C22.7601 57.7443 18.4338 62.4456 15.0851 66.2257C18.0273 63.3216 27.7955 53.1338 27.2283 54.1611C27.2924 54.1601 27.3542 54.1846 27.4003 54.2292C27.58 54.4089 27.4949 54.5338 26.7385 55.4419C24.0894 58.5673 20.6102 62.4324 17.6019 65.8246C21.0584 62.3908 27.9241 55.23 27.6367 55.8903C27.9619 55.93 27.9165 56.2308 27.701 56.4427C25.1578 59.4924 21.8601 63.2043 19.0503 66.4697L20.9411 64.557C27.6858 57.663 28.3325 57.0765 27.9714 58.2948C25.7439 61.0457 22.7677 64.4889 20.3304 67.4157C21.654 66.1292 28.5764 58.94 28.0829 59.7213C28.1142 59.7204 28.1453 59.7259 28.1742 59.7376C28.2032 59.7494 28.2294 59.767 28.2512 59.7894C28.4649 60.1035 28.0621 60.3059 27.8938 60.6162C26.4379 62.4816 24.5432 64.8143 22.8868 66.884C27.4892 62.23 27.9052 61.74 27.7728 62.7086C27.3587 63.0038 24.9989 65.4235 23.1326 67.2965C20.3833 70.0719 20.3871 70.0719 20.2529 70.0719C19.8898 69.9621 19.9352 69.8297 20.3361 69.334C21.896 67.3532 23.9646 64.8086 25.6683 62.6765L24.3749 63.9856C18.0292 70.4181 17.9592 70.4181 17.772 70.4181C17.7083 70.4181 17.6472 70.3929 17.6019 70.3481C17.4128 70.1589 17.4128 70.1589 19.2545 67.9662C20.9184 65.9721 23.3482 63.104 25.1861 60.9189C23.9797 62.1316 22.554 63.5675 21.2701 64.8767C15.7167 70.5089 15.694 70.5089 15.5049 70.5108ZM27.4381 62.7067C27.4649 62.7336 27.4981 62.7532 27.5346 62.7635C27.5004 62.7517 27.4694 62.7323 27.4438 62.7067H27.4381ZM7.80531 52.1802C7.86696 52.1804 7.92606 52.2049 7.96981 52.2484C7.93498 52.2137 7.89014 52.1908 7.84162 52.183C7.79311 52.1752 7.74336 52.1828 7.69942 52.2048C7.73248 52.189 7.76863 52.1806 7.80531 52.1802ZM73.7964 48.527C72.9342 48.2754 73.908 47.5432 74.2521 47.0532C77.8731 42.7832 82.761 37.2154 86.7224 32.6408C85.2815 34.0938 83.697 35.7057 82.1748 37.2438C71.7411 47.8175 71.6465 47.8175 71.3686 47.8194C70.911 47.7892 70.9639 47.2935 71.2343 47.0627C75.797 41.6916 82.0879 34.8184 86.8963 29.2789C82.6702 33.5394 76.8369 39.5367 72.8245 43.5532C68.7213 47.4619 69.2149 47.4524 68.4434 47.2311C68.1711 46.9605 68.3678 46.7259 69.1997 45.7346C73.7756 40.4032 80.3275 33.2954 85.2721 27.6878C81.2426 31.6494 65.5636 47.8157 66.7851 46.0392C66.1006 45.797 66.3634 45.5794 67.3524 44.3913C71.8469 39.1905 78.1 32.3967 82.986 26.9121C81.3863 28.5259 79.6127 30.3175 77.9204 32.0467C65.7338 44.1908 65.7357 44.7867 64.8167 44.5332C64.5463 44.2646 64.7165 44.0659 65.6544 42.9611C70.2492 37.6543 76.6535 30.6884 81.6303 25.1016C79.261 27.4702 76.4342 30.3194 73.891 32.8811C63.7219 43.1351 63.6935 43.1351 63.4439 43.1351C63.3979 43.1368 63.3521 43.1287 63.3094 43.1114C63.2667 43.0942 63.2281 43.0681 63.1962 43.0348C62.7935 42.4805 63.9677 41.6329 64.4253 40.9348C68.1787 36.5362 73.1535 31.0573 77.4552 26.2557C74.0517 29.5684 64.0887 40.1402 62.1222 41.3038C62.0277 41.302 61.9374 41.2648 61.8689 41.1997C61.5304 40.6889 62.247 40.32 62.5779 39.8092C67.1954 34.4967 73.8002 27.2905 78.7032 21.7454C76.7707 23.694 74.4809 26.0248 72.3178 28.227C61.4321 39.0846 61.5398 39.5784 60.6322 39.3343C60.3637 39.0694 60.5434 38.8575 61.3999 37.8359C65.5598 32.9719 71.3288 26.6511 75.8783 21.5013C74.0933 23.2892 72.0625 25.3362 70.1319 27.2792C59.9988 37.4859 59.961 37.4859 59.7095 37.4954C59.1422 37.3213 59.25 37.0981 59.9137 36.3413C64.2286 31.3543 70.1395 24.7762 74.5565 19.653C72.1438 22.0557 69.0012 25.2302 66.3861 27.8751C59.3899 34.737 60.0688 34.7219 59.2614 34.4967C58.9153 34.003 59.6811 33.5735 60.0045 33.0419C63.1546 29.2354 67.3145 24.4186 70.8429 20.2735C66.2178 24.8594 59.3654 32.2132 59.233 31.7497C59.1394 31.748 59.0498 31.7116 58.9815 31.6475C58.7414 31.4092 58.8662 31.2465 59.4656 30.4708C61.8707 27.4116 65.106 23.5257 67.8005 20.2129C62.2092 25.8602 59.7605 28.4521 59.7624 28.0511C59.669 28.0484 59.5797 28.0122 59.511 27.9489C59.1649 27.4229 60.0782 26.7059 60.428 25.987C61.3337 24.6324 62.6706 22.68 63.7011 21.1608C62.6309 22.2373 62.6044 22.2373 62.4588 22.2392C62.3852 22.2392 62.3135 22.2156 62.2544 22.1717C62.1953 22.1278 62.1519 22.066 62.1307 21.9955C62.1095 21.925 62.1115 21.8495 62.1366 21.7802C62.1616 21.711 62.2083 21.6517 62.2697 21.6111C62.4342 21.4654 63.3399 20.5516 64.0055 19.88C65.817 18.1565 65.4615 18.1338 66.0212 18.3665C66.3615 18.8659 65.5277 19.5016 65.1987 20.1694C64.1833 21.6829 62.6422 23.9305 61.5153 25.6011C62.924 24.1992 64.8526 22.2373 66.4315 20.6235C71.6768 15.4889 71.0395 15.504 71.8356 15.7216C72.2989 16.1832 70.5971 17.6702 70.0374 18.5405C67.9102 21.1721 64.8375 24.8992 62.5193 27.7521C63.8429 26.4127 65.3934 24.8367 66.8569 23.3459C75.0444 15.0065 75.1276 15.0065 75.4036 15.0046C75.848 15.0311 75.8177 15.5135 75.5511 15.7462C72.2478 19.7513 67.9026 24.7308 64.2778 29.014L65.885 27.3889C78.1473 15.2165 77.5573 15.2297 78.4461 15.4548C78.69 15.6951 78.4858 15.9675 78.2286 16.31C74.5925 20.8146 69.8899 25.9586 65.7262 30.73L69.6327 26.8005C80.613 15.7386 80.6735 15.7386 80.9288 15.7386C81.6114 15.9751 81.3277 16.2192 80.3899 17.3619C76.1297 22.3413 70.1924 28.8475 65.5617 34.0957C67.4696 32.1735 69.7027 29.8994 71.8148 27.7484C82.3356 17.0421 82.8971 16.5654 83.2224 16.5635C83.9258 16.8302 83.6781 16.9873 82.5246 18.3986C78.0641 23.5938 71.9112 30.3175 66.9874 35.8362C69.697 33.2102 86.2062 16.2078 85.0055 17.8954C85.0513 17.8947 85.0969 17.9033 85.1394 17.9205C85.182 17.9377 85.2206 17.9633 85.2532 17.9957C85.5708 18.4705 84.9903 18.7127 84.7199 19.1308C79.8037 24.7194 73.2443 31.8859 68.12 37.7073C69.7292 36.0916 71.5747 34.23 73.3974 32.393C86.7129 19.197 86.0946 19.2102 86.9719 19.4335C87.2442 19.7021 87.0722 19.9046 86.1173 21.0284C81.4544 26.4184 74.9158 33.5281 69.8785 39.1905C72.1778 36.8824 74.9423 34.0824 77.425 31.5586C87.906 20.9186 87.9817 20.9186 88.2634 20.9167C88.9649 21.1627 88.6567 21.4162 87.6583 22.6194C83.2469 27.7275 77.2 34.3057 72.3423 39.7543C73.8418 38.2408 75.4755 36.5873 77.0411 35.0038C88.6567 23.2457 89.2637 22.7216 89.5757 22.7216C90.2753 22.9619 89.9727 23.2305 88.98 24.4546C84.4628 29.7594 78.0925 36.6648 73.1762 42.227C77.5063 37.9494 91.8806 22.96 91.0335 24.4697C91.1281 24.4691 91.2192 24.5058 91.2869 24.5719C91.5516 24.8348 91.4249 25.0202 90.3131 26.3559C86.4255 30.9532 81.3013 36.6289 76.888 41.633C81.9725 36.5797 92.0754 26.0324 91.6537 27.0162C92.1321 27.0748 92.0659 27.5157 91.7483 27.8278C88.0063 32.3154 83.1543 37.7773 79.019 42.5846C79.9304 41.6632 80.8777 40.6927 81.7948 39.7713C91.7067 29.6175 92.6521 28.7567 92.1245 30.5465C88.8477 34.597 84.4684 39.6635 80.8815 43.9675C82.8423 42.0757 93.0151 31.4981 92.2966 32.6465C92.3421 32.6456 92.3873 32.6539 92.4295 32.6708C92.4717 32.6877 92.5101 32.7128 92.5424 32.7448C92.8582 33.2102 92.272 33.5016 92.0168 33.9632C89.8744 36.7084 87.0873 40.1421 84.6424 43.1862C91.4155 36.3375 92.0262 35.6186 91.8277 37.0432C91.2169 37.4765 87.7453 41.0351 84.9979 43.7935C80.6338 48.0086 81.2691 47.9935 80.5184 47.7778C80.2934 47.5527 80.3823 47.4373 80.8853 46.7921C83.1789 43.8767 86.2251 40.1327 88.7286 36.994C88.114 37.6165 87.4674 38.2711 86.8282 38.9219C77.4893 48.3813 77.3872 48.3813 77.1111 48.3813C77.0175 48.3796 76.9279 48.3432 76.8596 48.2792C76.5911 48.0124 76.5911 48.0124 79.2932 44.7735C81.7399 41.8411 85.3174 37.6202 88.0195 34.4059C86.244 36.1881 84.147 38.3146 82.2599 40.2292C74.0876 48.5157 74.0422 48.5157 73.787 48.5175L73.7964 48.527ZM81.1708 17.8557C81.1908 17.8754 81.2156 17.8897 81.2426 17.8973C81.2135 17.8908 81.1866 17.8764 81.1651 17.8557H81.1708ZM66.7473 10.1329C66.7697 10.1327 66.792 10.1369 66.8128 10.1453C66.8335 10.1538 66.8524 10.1663 66.8683 10.1821C66.8426 10.1569 66.8097 10.1402 66.7741 10.1344C66.7386 10.1287 66.7021 10.1341 66.6698 10.15C66.6941 10.1389 66.7205 10.1331 66.7473 10.1329ZM134.767 65.5692C134.482 65.4859 134.805 65.2438 134.919 65.0811C136.119 63.6659 137.74 61.8213 139.052 60.304C129.753 69.8221 135.119 63.5902 139.111 59.1859C137.553 60.6824 134.423 64.1257 133.079 65.17C132.848 65.0943 132.945 65.0016 133.243 64.6402C134.756 62.8732 136.932 60.5178 138.574 58.6581C129.414 68.0665 131.496 65.2797 137.817 58.4008C127.913 68.5754 132.122 63.4692 137.367 57.8011C136.583 58.5862 135.647 59.5302 134.803 60.3797C131.432 63.7851 131.42 63.7851 131.337 63.7851C131.148 63.7548 131.214 63.5959 131.337 63.4484C132.689 61.8062 134.421 59.9389 135.977 58.1908C134.843 59.2881 131.547 62.7919 130.895 63.1778C130.606 63.0908 130.927 62.8467 131.046 62.6821C132.576 60.9208 134.765 58.5332 136.392 56.6943C127.796 65.5862 129.395 63.2289 135.446 56.6148C126.461 65.7754 130.341 61.2197 135.007 55.9981C134.287 56.6848 129.857 61.2651 130.019 60.9548C129.73 60.8659 130.069 60.6124 130.184 60.4384C131.228 59.1802 132.608 57.5835 133.776 56.21C128.31 61.9065 129.108 60.533 132.767 56.1892C129.123 60.0127 129.577 59.1027 131.407 56.5032C130.98 56.8967 131.101 56.8986 130.916 56.8286C130.808 56.5997 131.258 56.4124 131.509 56.0719C132.041 55.5346 132.041 55.5346 132.097 55.5346C132.542 55.6159 130.842 57.5721 130.685 57.9657C136.314 52.1386 134.005 55.1089 131.02 58.6789C137.827 51.6373 135.527 54.6284 131.602 59.097C139.733 50.7405 135.484 55.9584 132.082 59.6646C141.276 50.2808 136 56.4484 132.029 60.7789C141.504 50.9978 138.021 55.3757 132.5 61.3559C133.398 60.4857 138.87 54.8516 138.473 55.4097C138.734 55.4778 138.485 55.6916 138.379 55.8221C136.747 57.6743 134.574 60.0505 132.876 61.9784C143.072 51.5635 138.848 56.6205 133.459 62.4702C142.427 53.2246 140.625 55.7616 134.274 62.6594C144.121 52.5586 139.402 58.2211 134.546 63.4786C142.168 55.5611 142.457 55.8997 135.773 63.2894C143.435 55.3965 141.017 58.5105 136.48 63.6016C143.688 56.174 140.559 60.0675 137.103 64.0632C137.753 63.4351 141.124 59.9294 140.884 60.3097C141.423 60.3494 138.63 63.2989 138.349 63.804C140.671 61.5338 140.463 61.5338 140.733 61.6075C140.801 61.8932 139.345 63.0038 138.464 64.0065C137.123 65.3592 137.123 65.3592 137.061 65.3592C136.511 65.3478 139.447 62.23 139.708 61.7513C132.774 68.8875 136.537 64.2789 139.474 60.8962C138.884 61.4884 138.19 62.1921 137.564 62.8278C134.854 65.5748 134.839 65.5748 134.754 65.5748L134.767 65.5692ZM140.587 61.7627C140.601 61.7752 140.617 61.7849 140.635 61.7911C140.617 61.7854 140.601 61.7757 140.587 61.7627ZM131.008 56.63C131.023 56.6296 131.038 56.6322 131.052 56.6378C131.066 56.6433 131.079 56.6516 131.09 56.6621C131.072 56.6456 131.05 56.6347 131.027 56.631C131.003 56.6272 130.979 56.6309 130.957 56.6413C130.973 56.634 130.991 56.6301 131.008 56.63Z" fill="#FECB86"/>
</g>
<path opacity="0.5" d="M3.88574 44.887C12.0993 40.0835 20.7404 36.0523 29.6979 32.8451C21.4841 37.6483 12.8431 41.6795 3.88574 44.887ZM41.3343 17.8557C49.6822 13.3136 58.3027 9.29195 67.1465 5.81378C58.7983 10.3555 50.1779 14.3771 41.3343 17.8557ZM132.209 69.5743C137.615 66.6 143.213 63.9891 148.966 61.7589C143.56 64.7329 137.962 67.3438 132.209 69.5743Z" fill="#FECB86"/>
<g opacity="0.8">
<path d="M5.17334 83.0389L8.82838 100.609H38.15L41.805 83.0389H5.17334Z" fill="url(#paint0_linear_7_1942)"/>
<path style="mix-blend-mode:screen" opacity="0.8" d="M40.8463 87.6476L39.8554 92.4132H7.1246L6.13379 87.6476H40.8463Z" fill="url(#paint1_linear_7_1942)"/>
<path style="mix-blend-mode:screen" opacity="0.8" d="M39.4396 94.4149L39.2014 95.5576H7.77713L7.54077 94.4149H39.4396Z" fill="url(#paint2_linear_7_1942)"/>
<path style="mix-blend-mode:multiply" opacity="0.5" d="M38.5247 98.8154L38.1465 100.609H8.82868L5.17554 83.0389H7.50886C12.2909 104.788 6.1153 97.6216 38.5247 98.8154Z" fill="url(#paint3_linear_7_1942)"/>
<path d="M8.82837 100.609H38.1367V103.659H8.82837V100.609Z" fill="url(#paint4_linear_7_1942)"/>
<path style="mix-blend-mode:multiply" opacity="0.5" d="M8.82837 102.41H38.1367V103.657H8.82837V102.41Z" fill="url(#paint5_linear_7_1942)"/>
<path d="M17.74 103.659C17.6889 106.686 13.1357 106.686 13.0828 103.659C13.1357 100.622 17.6889 100.622 17.74 103.659ZM33.8823 103.659C33.8293 106.686 29.2761 106.686 29.2251 103.659C29.2761 100.622 33.8312 100.622 33.8823 103.659Z" fill="#695C48"/>
<path d="M16.5241 103.659C16.5449 105.089 14.2796 105.089 14.3004 103.659C14.2796 102.226 16.5449 102.226 16.5241 103.659Z" fill="url(#paint6_linear_7_1942)"/>
<path d="M32.6647 103.659C32.6874 105.089 30.4203 105.089 30.4411 103.659C30.4203 102.226 32.6874 102.226 32.6647 103.659Z" fill="url(#paint7_linear_7_1942)"/>
</g>
<g opacity="0.8">
<path d="M147.187 106.601L103.215 106.005C103.215 106.005 106.111 102.482 106.836 102.382C107.56 102.281 107.704 100.142 109.006 98.5165C110.309 96.8913 110.744 95.6938 111.903 95.27C113.062 94.8462 115.379 92.7027 116.099 91.3557C116.952 89.722 118.36 88.4471 120.07 87.7611C121.424 86.8378 123.6 84.4559 124.345 84.5297C125.669 84.8854 127.115 87.027 127.938 87.8122C133.701 93.73 135.057 88.9643 137.046 91.613C138.022 94.2616 138.852 93.677 141.06 96.863C141.732 97.9115 142.349 98.9946 142.908 100.108C144.074 102.387 144.957 104.478 145.056 104.489C145.207 104.512 147.187 106.601 147.187 106.601Z" fill="url(#paint8_linear_7_1942)"/>
<path style="mix-blend-mode:multiply" opacity="0.5" d="M121.248 106.249L103.215 106.005C103.215 106.005 106.111 102.482 106.836 102.382C107.56 102.281 107.704 100.142 109.006 98.5164C110.309 96.8913 110.744 95.6938 111.903 95.27C113.062 94.8462 115.379 92.7027 116.099 91.3556C116.951 89.7215 118.36 88.4465 120.07 87.761L117.68 91.6129C117.647 92.4053 117.711 93.1987 117.869 93.9759C118.126 95.0448 115.307 96.9367 115.691 98.6621C116.074 100.388 115.178 102.609 115.178 102.609C115.711 103.496 115.88 104.122 117.052 104.731C118.574 105.348 120.132 105.672 121.248 106.249Z" fill="url(#paint9_linear_7_1942)"/>
<path style="mix-blend-mode:multiply" opacity="0.5" d="M147.187 106.601L136.386 106.455C136.9 106.199 141.851 105.303 142.293 103.935C142.439 102.068 140.504 102.115 142.915 100.117C144.082 102.397 144.965 104.487 145.063 104.499C145.207 104.512 147.187 106.601 147.187 106.601Z" fill="url(#paint10_linear_7_1942)"/>
<path style="mix-blend-mode:multiply" opacity="0.5" d="M137.053 91.6186H134.595L133.272 92.1729C133.272 92.1729 131.776 91.8438 131.39 91.6186C131.005 91.3935 128.055 87.9427 127.947 87.8178C133.695 93.73 135.053 88.9719 137.053 91.6186Z" fill="url(#paint11_linear_7_1942)"/>
<path d="M147.187 106.601H103.215C103.358 106.116 104.491 97.8411 105.011 97.7484C106.106 98.1854 109.309 97.4873 109.29 97.4684L112.743 98.7189H115.121C115.121 98.7189 118.268 98.1513 118.498 98.0019C118.729 97.8524 119.175 96.3351 119.111 95.4894C119.047 94.6438 120.14 94.0138 120.877 93.1776C121.72 92.2316 121.951 92.3678 122.087 92.0632C122.223 91.7586 121.72 91.3784 121.331 90.3605C120.941 89.3427 120.953 89.5489 120.794 88.4838L119.567 87.4716C120.412 86.3365 121.231 86.6089 120.771 85.7405L124.341 84.5316C124.341 84.5316 125.593 83.2621 125.824 83.2621C126.054 83.2621 127.427 84.0189 127.777 83.947C128.127 83.8751 128.893 84.4294 130.197 84.5297C131.502 84.63 130.859 84.4332 131.886 84.594C132.882 84.77 133.777 85.6024 134.123 85.9184C136.335 88.0619 140.425 92.12 142.821 93.993L145.15 102.576L147.187 106.601Z" fill="url(#paint12_linear_7_1942)"/>
<g style="mix-blend-mode:multiply" opacity="0.3">
<path d="M146.341 106.601H131.262L132.16 101.303L134.193 97.6216L138.515 93.4292V91.3008C139.111 91.9535 141.429 93.8889 142.142 94.4905L144.381 102.741L146.341 106.601Z" fill="#818181"/>
</g>
<g style="mix-blend-mode:multiply" opacity="0.5">
<path d="M129.036 106.601H104.062C104.24 105.94 105.259 98.1078 105.9 97.8865C107.339 97.9451 109.29 97.4684 109.29 97.4684L112.743 98.7189H115.121C115.121 98.7189 118.268 98.1514 118.499 98.0019C118.729 97.8524 119.175 96.3351 119.111 95.4895C119.054 94.7043 119.896 94.1973 120.692 93.3762C121.838 94.4943 125.007 97.597 126.236 98.5278L127.73 104.028L129.036 106.601Z" fill="#818181"/>
</g>
</g>
<path d="M31.01 52.4489C30.7774 57.4416 34.6424 61.0438 37.698 64.4189C37.7245 64.4624 38.1953 63.4862 38.6207 63.2327C38.6321 63.1873 38.6453 63.1419 38.6567 63.0927C37.2499 60.8773 35.7372 55.8751 34.6027 54.1081C34.6027 54.0608 34.6027 54.0135 34.6159 53.9662H34.597C34.5941 53.468 34.6225 52.9701 34.6821 52.4754C32.9122 52.973 31.7002 52.727 31.01 52.4489Z" fill="url(#paint13_linear_7_1942)"/>
<path d="M60.3393 48.7597C60.6901 48.5606 61.0519 48.3812 61.4227 48.2224C61.7669 48.0994 62.6404 47.1119 62.96 46.5992C63.2795 46.0865 62.803 46.1792 62.457 46.5708C61.7007 47.3502 61.02 47.5754 60.2769 48.0729L60.3393 48.7597Z" fill="url(#paint14_linear_7_1942)"/>
<path d="M60.5246 48.0938C60.8701 47.8323 61.2299 47.5904 61.6024 47.3692C61.9522 47.1913 62.7369 46.0183 63.013 45.4262C63.2891 44.834 62.788 45.0005 62.4722 45.4659C62.1564 45.9313 61.7934 46.4365 61.7934 46.4365L60.3601 47.3692L60.5246 48.0938Z" fill="url(#paint15_linear_7_1942)"/>
<path d="M60.4545 47.5659C60.7614 47.2609 61.0853 46.9735 61.4246 46.7051C61.746 46.48 62.37 45.2124 62.5591 44.59C62.7482 43.9676 62.2773 44.1984 62.0277 44.7016C61.7781 45.2048 61.487 45.7535 61.487 45.7535L60.1936 46.8697L60.4545 47.5659Z" fill="url(#paint16_linear_7_1942)"/>
<path d="M60.5509 47.2311C60.7345 46.8419 60.939 46.463 61.1635 46.0959C61.3885 45.7762 61.5417 44.3724 61.4963 43.7254C61.4509 43.0784 61.0955 43.453 61.0368 44.0092C60.9782 44.5654 60.8931 45.1822 60.8931 45.1822L60.0649 46.673L60.5509 47.2311Z" fill="url(#paint17_linear_7_1942)"/>
<path d="M60.3921 46.077C59.7473 46.8848 59.4636 44.7527 59.1724 44.7394C58.8945 44.5654 58.8359 44.5767 58.7943 44.7186C58.7527 44.8605 59.1724 45.1121 59.0061 45.5605C58.8397 46.0089 59.0722 46.5178 58.7848 46.9265C58.6165 48.334 61.1711 50.173 61.0841 46.9776L60.3921 46.077Z" fill="url(#paint18_linear_7_1942)"/>
<path d="M46.3259 51.7962L47.7233 52.2427C47.7233 52.2427 48.9164 51.4746 49.1546 51.6903L49.3797 51.5786L48.7084 51.5446C49.8959 50.5986 57.9472 47.5584 58.8283 47.0343C59.2774 47.6621 59.8149 48.2216 60.4242 48.6954C56.8316 51.1889 53.2238 53.9832 49.1093 55.563C47.3092 56.1986 46.307 54.04 45.9326 52.6362L46.3259 51.7962Z" fill="url(#paint19_linear_7_1942)"/>
<path d="M50.2175 50.7027C49.5349 48.2281 47.3528 45.0667 47.3528 45.0667H42.8904C43.3272 47.424 46.4509 51.6089 47.4682 52.9238C48.1205 52.7119 49.1624 52.1632 50.2175 50.7027Z" fill="url(#paint20_linear_7_1942)"/>
<path d="M38.5017 102.802C39.7251 104.504 39.5304 105.802 36.696 105.732C36.2346 105.732 34.9545 104.864 34.9129 104.364C34.8713 103.865 36.1419 102.353 36.1419 102.353L38.5017 102.802Z" fill="url(#paint21_linear_7_1942)"/>
<path d="M44.3463 39.34C44.3463 39.34 43.9095 43.3432 45.1688 43.8427C45.1688 43.8427 43.208 45.937 41.198 42.8665C41.198 42.8665 41.6008 40.7627 41.198 39.1129L44.3463 39.34Z" fill="url(#paint22_linear_7_1942)"/>
<path d="M46.9501 52.3127L46.761 52.3581C46.8253 52.3488 46.8886 52.3336 46.9501 52.3127Z" fill="url(#paint23_linear_7_1942)"/>
<path d="M46.5038 49.0321C45.9838 49.4408 42.3004 49.8684 40.6724 49.6205C39.8782 49.4067 39.3734 47.7286 39.0708 46.1413L38.4865 47.3143C39.3318 50.12 37.6565 52.7081 36.9039 53.1281C36.6529 51.437 36.5265 49.7297 36.5257 48.02C35.7977 48.1657 35.1832 48.2565 35.2853 47.7835C35.516 46.9908 35.9339 44.9343 36.8434 44.4159C38.0573 43.9921 39.4736 43.3205 40.6667 42.9402C40.8403 42.8959 41.0188 42.8736 41.198 42.874C41.2094 43.4151 45.271 45.5416 44.4938 42.8854C44.8587 43.4851 45.5811 43.8313 46.1748 44.134C46.3998 45.447 46.8933 48.7067 46.5038 49.0321Z" fill="url(#paint24_linear_7_1942)"/>
<path d="M45.823 101.182C45.823 101.182 47.3054 101.64 48.4702 101.201C49.8884 102.926 53.0461 101.808 53.2976 103.721C53.2976 103.721 49.5726 104.886 45.5148 104.081C45.3283 103.105 45.4355 102.096 45.823 101.182Z" fill="url(#paint25_linear_7_1942)"/>
<path style="mix-blend-mode:multiply" opacity="0.5" d="M38.7625 53.8413C38.7625 53.8867 38.753 53.9303 38.7493 53.9757C38.7625 53.9038 38.7625 53.8584 38.7625 53.8413Z" fill="url(#paint26_linear_7_1942)"/>
<path d="M48.3588 63.0605C47.1524 59.2408 48.4268 55.0692 48.6348 51.2249C47.5003 50.0538 47.107 46.1678 46.9917 44.6032C46.7354 44.4215 46.4632 44.2633 46.1786 44.1303C46.3998 45.4432 46.899 48.703 46.5038 49.0284C46.0047 49.437 42.3912 49.84 40.7632 49.6357C39.4396 49.384 38.9593 45.4281 38.7418 43.68L37.7359 44.0811C38.617 47.3408 39.536 51.1378 36.9039 53.1357C37.197 55.2811 37.6357 57.5116 38.1141 59.5946C38.254 60.6843 39.0595 61.8005 38.2653 62.7957C36.626 66.7951 36.3745 71.2297 36.505 75.5035C36.9947 86.783 36.6392 98.1513 36.1438 102.368C36.4533 102.66 36.8396 102.857 37.2574 102.937C37.6751 103.016 38.1068 102.975 38.5017 102.817C40.0333 96.4619 42.4536 85.8351 43.2289 75.5735C43.9247 79.4557 44.9306 81.6124 44.9117 83.773C43.5276 89.5319 45.5319 95.5632 45.8231 101.281C46.7043 101.736 48.5138 101.411 48.4703 101.209C47.9352 98.0322 48.5157 94.6324 48.8391 91.4541C49.8696 84.1892 49.6238 66.2635 48.3588 63.0605Z" fill="url(#paint27_linear_7_1942)"/>
<path d="M48.6349 51.2249C47.5003 50.0538 47.107 46.1678 46.9917 44.6032C46.9917 44.607 49.1624 46.777 48.6349 51.2249Z" fill="url(#paint28_linear_7_1942)"/>
<path style="mix-blend-mode:multiply" opacity="0.5" d="M44.9269 82.9386C44.6187 81.6143 43.9172 78.7973 43.2251 75.5603C43.2251 75.5603 43.5673 66.6022 44.3861 67.6143C45.1141 68.5243 46.0406 79.8643 44.9269 82.9386Z" fill="url(#paint29_linear_7_1942)"/>
<path style="mix-blend-mode:screen" opacity="0.8" d="M41.1451 52.9086L46.4395 52.5302C46.4395 52.5302 47.1221 53.444 47.3604 53.6805C47.3604 53.6805 46.8839 59.167 46.952 59.7781C46.952 59.7781 45.2105 60.76 41.147 60.1565C41.147 60.1565 40.0881 55.3302 40.0881 54.424C40.5773 54.0297 40.944 53.504 41.1451 52.9086Z" fill="url(#paint30_linear_7_1942)"/>
<path d="M34.6027 54.1081C36.1646 52.1783 38.0441 49.8967 38.0441 49.8967L36.5843 44.5994C34.5044 45.9938 31.895 50.8521 31.012 52.4413C31.7664 53.7411 33.1467 54.2973 34.6027 54.1081Z" fill="url(#paint31_linear_7_1942)"/>
<path d="M37.5259 64.0708C37.62 64.2646 37.759 64.4332 37.9313 64.5625C38.1036 64.6919 38.3043 64.7782 38.5167 64.8143C39.222 64.9108 38.6018 65.2551 38.3276 65.2154C38.0534 65.1756 37.3103 64.9051 37.229 64.4586C37.1477 64.0121 37.5259 64.0708 37.5259 64.0708Z" fill="url(#paint32_linear_7_1942)"/>
<path d="M37.7565 63.524C37.8599 63.7594 38.018 63.9667 38.2176 64.1286C38.4173 64.2906 38.6527 64.4024 38.9043 64.4548C39.7552 64.6175 38.9742 64.9694 38.6471 64.9051C38.32 64.8408 37.4351 64.4719 37.3689 63.9592C37.3027 63.4465 37.7565 63.524 37.7565 63.524Z" fill="url(#paint33_linear_7_1942)"/>
<path d="M37.9929 62.9111C38.1246 63.1917 38.3213 63.437 38.5666 63.6265C38.8119 63.816 39.0988 63.9443 39.4035 64.0008C40.4453 64.19 39.4886 64.6024 39.0877 64.5268C38.6868 64.4511 37.5977 64.0197 37.5183 63.4124C37.4389 62.8051 37.9929 62.9111 37.9929 62.9111Z" fill="url(#paint34_linear_7_1942)"/>
<path d="M39.3297 63.49C39.1132 63.4466 38.9082 63.3584 38.7277 63.231C38.5473 63.1036 38.3956 62.9399 38.2822 62.7503L38.4713 62.3984C38.3167 62.4304 38.1667 62.4819 38.025 62.5516C37.1628 62.9924 38.6528 63.9327 39.0669 63.9308C39.4035 64.0046 40.1844 63.6508 39.3297 63.49Z" fill="url(#paint35_linear_7_1942)"/>
<path d="M46.8272 34.9849C45.9082 37.2968 48.1129 40.1535 44.8096 42.3632C43.8642 42.2043 39.9822 41.7957 39.8442 38.3903C39.6967 37.8076 38.8288 37.5313 39.1862 36.5684C39.5436 35.6054 39.9974 36.2165 39.9974 36.2165C39.9974 36.2165 40.0787 35.4768 40.1978 34.8562C40.3169 34.2357 46.8272 34.9849 46.8272 34.9849Z" fill="url(#paint36_linear_7_1942)"/>
<path d="M46.8158 34.8354C46.4527 35.3897 45.7153 36.26 43.1778 36.4322C44.3747 34.9622 40.8085 36.4662 40.9087 37.5824C40.6005 39.0619 39.9047 37.0792 39.9992 36.2013C39.9992 36.2013 39.5454 35.5922 39.1862 36.5532C38.8269 37.5143 39.6986 37.7924 39.8461 38.3751C40.0654 39.1924 40.1013 39.813 40.2639 40.0778C40.2639 40.0778 38.0497 38.2313 38.7739 34.7692C39.4981 31.307 45.2426 32.4838 46.8158 34.8354Z" fill="url(#paint37_linear_7_1942)"/>
<path d="M46.0764 35.5997C46.3657 36.2221 47.3149 35.9043 47.105 35.0719C46.9878 34.6954 46.0764 35.5997 46.0764 35.5997Z" fill="url(#paint38_linear_7_1942)"/>
<path d="M47.5836 34.7692C50.4312 36.0367 41.8278 35.9043 40.2981 35.2024L41.9072 32.743L47.5836 34.7692Z" fill="url(#paint39_linear_7_1942)"/>
<path d="M41.8013 30.1321C41.8013 30.1321 37.5506 30.9551 38.116 35.2724C38.1256 35.3376 38.1494 35.3998 38.1856 35.4548C38.2218 35.5098 38.2696 35.5562 38.3256 35.5908C38.3816 35.6254 38.4445 35.6474 38.5099 35.6551C38.5752 35.6628 38.6415 35.6562 38.704 35.6357C41.5749 34.7365 44.6007 34.4415 47.5911 34.7692C47.5911 34.7692 47.2375 29.207 41.8013 30.1321Z" fill="url(#paint40_linear_7_1942)"/>
<path d="M46.2788 34.6594C46.2788 34.6594 45.7116 35.2951 43.7451 34.807L43.399 34.7124C43.399 34.7124 43.0738 31.3997 41.8013 30.1303C43.4312 29.1181 45.8799 31.5416 46.2788 34.6594Z" fill="url(#paint41_linear_7_1942)"/>
<path style="mix-blend-mode:multiply" opacity="0.5" d="M43.745 34.8108L43.399 34.7162C43.399 34.7162 43.0738 31.4148 41.8069 30.1378C41.926 30.1927 43.8244 31.1992 43.745 34.8108Z" fill="url(#paint42_linear_7_1942)"/>
<path d="M118.209 106.788C88.4222 106.478 49.3929 106.065 19.3906 105.751C19.3906 105.751 25.8971 99.6346 27.5213 99.4605C29.1456 99.2865 29.4746 95.5708 32.4035 92.7481C35.3325 89.9254 36.3082 87.8443 38.9119 87.1103C41.5156 86.3762 46.7212 82.6435 48.3492 80.3127C50.4121 77.21 53.9764 75.0778 57.2703 74.0808C60.3108 72.4784 65.2119 68.3408 66.8759 68.4695C69.8313 69.0768 73.0741 72.7792 74.9574 74.1641C87.6867 84.3595 90.8671 76.2092 95.4298 80.7705C97.7348 85.4795 99.4838 84.3292 104.455 89.8876C105.946 91.6841 107.331 93.5652 108.605 95.5216C114.096 104.26 112.175 102.032 118.209 106.788Z" fill="url(#paint43_linear_7_1942)"/>
<path style="mix-blend-mode:multiply" opacity="0.5" d="M59.9156 106.177L19.3906 105.757C19.3906 105.757 25.8971 99.6403 27.5213 99.4662C29.1456 99.2922 29.4746 95.5765 32.4035 92.7538C35.3325 89.9311 36.3082 87.85 38.9119 87.1159C41.5156 86.3819 46.7212 82.6492 48.3492 80.3184C50.3913 77.2176 53.9915 75.0816 57.2703 74.0865L51.8965 80.7762C51.8965 80.7762 51.7509 83.0219 52.3276 84.8797C52.9043 86.7376 46.5699 90.0181 47.4321 93.0149C48.2944 96.0116 46.2806 99.8692 46.2806 99.8692L48.0088 102.153C48.7927 102.694 49.6236 103.163 50.4915 103.555C53.8894 104.608 57.3875 105.166 59.9156 106.177Z" fill="url(#paint44_linear_7_1942)"/>
<path style="mix-blend-mode:multiply" opacity="0.5" d="M118.209 106.788L93.936 106.534C93.936 106.534 100.703 105.011 103.201 104.44C105.699 103.869 106.645 102.73 107.212 102.149C107.779 101.568 106.455 99.8654 105.888 98.7227C105.321 97.58 108.615 95.5216 108.615 95.5216C114.104 104.27 112.177 102.032 118.209 106.788Z" fill="url(#paint45_linear_7_1942)"/>
<path style="mix-blend-mode:multiply" opacity="0.5" d="M95.4337 80.7705H89.9049L86.9343 81.7297C86.9343 81.7297 83.5705 81.1621 82.7063 80.7686C81.8422 80.3751 75.2072 74.3873 74.967 74.1621C87.736 84.3784 90.8484 76.1978 95.4337 80.7705Z" fill="url(#paint46_linear_7_1942)"/>
<path d="M129.609 106.788L66.2539 106.124C66.2539 106.124 70.4251 102.202 71.4689 102.09C72.5127 101.979 72.7207 99.5967 74.5983 97.7862C76.4759 95.9757 77.1018 94.6438 78.7714 94.1708C80.441 93.6978 83.7784 91.3084 84.8222 89.8194C86.1458 87.8311 88.4299 86.4632 90.542 85.8238C92.4915 84.7965 95.6266 82.144 96.7006 82.2292C98.5914 82.6076 100.671 84.9913 101.882 85.8786C110.043 92.417 112.092 87.1897 115.008 90.1146C116.485 93.1416 117.606 92.3962 120.794 95.9605C121.75 97.1119 122.638 98.3178 123.454 99.5721C126.973 105.168 125.742 103.738 129.609 106.788Z" fill="url(#paint47_linear_7_1942)"/>
<path style="mix-blend-mode:multiply" opacity="0.5" d="M92.2362 106.396L66.2539 106.124C66.2539 106.124 70.4251 102.202 71.4689 102.09C72.5127 101.979 72.7207 99.5967 74.5983 97.7862C76.4759 95.9756 77.1018 94.6438 78.7714 94.1708C80.441 93.6978 83.7784 91.3084 84.8222 89.8194C86.1307 87.8311 88.4394 86.4632 90.542 85.8238L87.0969 90.1127C87.0515 90.9983 87.1446 91.8856 87.3729 92.7424C87.7417 93.9324 83.682 96.0381 84.2341 97.9602C84.7863 99.8824 83.4967 102.355 83.4967 102.355C84.3306 103.451 84.5461 104.033 86.1949 104.718C88.3713 105.392 90.6139 105.757 92.2362 106.396Z" fill="url(#paint48_linear_7_1942)"/>
<path style="mix-blend-mode:multiply" opacity="0.5" d="M129.609 106.788L114.047 106.625C114.047 106.625 118.396 105.649 119.987 105.282C121.577 104.915 122.201 104.185 122.56 103.818C122.798 101.661 119.913 101.926 123.456 99.5684C126.977 105.174 125.742 103.738 129.609 106.788Z" fill="url(#paint49_linear_7_1942)"/>
<path style="mix-blend-mode:multiply" opacity="0.5" d="M115.008 90.107H111.462L109.558 90.7238C109.558 90.7238 107.401 90.3567 106.847 90.107C106.293 89.8573 102.04 86.0148 101.885 85.8748C110.075 92.4189 112.068 87.1746 115.008 90.107Z" fill="url(#paint50_linear_7_1942)"/>
<path d="M85.2778 106.788L41.8049 106.324C41.8049 106.324 44.6677 103.634 45.3824 103.556C46.0972 103.479 46.2428 101.854 47.5305 100.603C48.8181 99.3527 49.2493 98.4465 50.3932 98.123C51.5372 97.7995 53.8289 96.1592 54.5531 95.1338C55.4607 93.7678 57.0283 92.8314 58.4767 92.3924C59.8154 91.6868 61.9672 89.8668 62.7027 89.933C64.0037 90.1997 65.4294 91.8249 66.2576 92.4378C71.8526 96.9216 73.25 93.3365 75.2562 95.3514C76.2697 97.423 77.0393 96.9178 79.227 99.3622C79.8833 100.152 80.4932 100.98 81.0536 101.841C83.4682 105.675 82.6306 104.695 85.2778 106.788Z" fill="url(#paint51_linear_7_1942)"/>
<path style="mix-blend-mode:multiply" opacity="0.5" d="M59.632 106.513L41.8049 106.324C41.8049 106.324 44.6677 103.634 45.3824 103.556C46.0972 103.479 46.2428 101.854 47.5305 100.603C48.8181 99.3527 49.2493 98.4465 50.3932 98.1229C51.5372 97.7994 53.8289 96.1592 54.5531 95.1337C55.4513 93.7697 57.0358 92.8294 58.4767 92.3924L56.1055 95.3513C56.0744 95.9591 56.1382 96.568 56.2946 97.1562C56.548 97.9735 53.7609 99.4264 54.1409 100.738C54.521 102.049 53.6342 103.751 53.6342 103.751C54.2014 104.491 54.3697 104.917 55.4853 105.373C56.981 105.829 58.5202 106.075 59.632 106.513Z" fill="url(#paint52_linear_7_1942)"/>
<path style="mix-blend-mode:multiply" opacity="0.5" d="M85.2778 106.788L74.6001 106.676C74.9783 106.487 79.9494 105.827 80.441 104.748C80.5696 103.235 78.6522 103.424 81.0555 101.833C83.4701 105.681 82.6306 104.695 85.2778 106.788Z" fill="url(#paint53_linear_7_1942)"/>
<path style="mix-blend-mode:multiply" opacity="0.5" d="M75.2563 95.3513H72.8247L71.5181 95.7751C71.5181 95.7751 70.0375 95.5235 69.6575 95.3513C69.2774 95.1792 66.3598 92.5438 66.2539 92.4473C71.8736 96.9273 73.2406 93.3308 75.2563 95.3513Z" fill="url(#paint54_linear_7_1942)"/>
<path d="M106.227 69.2924C106.081 69.2924 105.926 69.3038 105.926 69.3038L105.896 69.3246C105.304 69.054 105.013 67.5103 104.884 67.113L106.486 66.1292C106.614 66.1992 107.966 66.8159 108.227 66.7346C108.638 66.7138 108.103 67.4913 107.774 67.2189C107.934 67.3419 107.963 67.5576 108.095 67.7108C108.131 68.0646 107.906 68.1346 107.611 68.1762C107.503 68.6435 107.318 68.4903 107.017 68.634C106.856 69.0124 106.749 68.9462 106.45 69.0124C106.395 69.0994 106.367 69.2811 106.227 69.2924Z" fill="url(#paint55_linear_7_1942)"/>
<path d="M101.685 55.054C100.533 59.5586 103.186 63.7 105.056 67.5613C105.527 67.1986 106.034 66.8848 106.569 66.6249C106.588 66.5851 106.61 66.5473 106.629 66.5038C105.765 64.1597 105.387 59.1916 104.687 57.3281C104.701 57.2846 104.714 57.2411 104.729 57.1976L104.712 57.1881C104.809 56.7235 104.936 56.2654 105.09 55.8165C103.343 55.9224 102.265 55.4476 101.685 55.054Z" fill="url(#paint56_linear_7_1942)"/>
<path d="M101.363 56.683C101.571 53.8924 103.241 50.0519 103.241 50.0519L108.019 49.1248C108.051 51.7394 105.589 56.8703 104.776 58.4897C104.033 58.4065 102.814 58.0338 101.363 56.683Z" fill="url(#paint57_linear_7_1942)"/>
<path d="M112.93 106.415C111.703 108.118 111.897 109.425 114.743 109.357C115.205 109.357 116.488 108.485 116.532 107.984C116.575 107.482 115.297 105.965 115.297 105.965L112.93 106.415Z" fill="url(#paint58_linear_7_1942)"/>
<path d="M107.066 42.7359C107.066 42.7359 107.505 46.7524 106.24 47.2557C106.24 47.2557 108.208 49.3557 110.224 46.2757C110.224 46.2757 109.821 44.1643 110.224 42.5089L107.066 42.7359Z" fill="url(#paint59_linear_7_1942)"/>
<path d="M104.453 55.754L104.642 55.7994C104.578 55.7902 104.515 55.775 104.453 55.754Z" fill="url(#paint60_linear_7_1942)"/>
<path d="M104.901 52.4621C105.421 52.8727 109.118 53.3002 110.752 53.0524C111.55 52.8367 112.054 51.1605 112.359 49.56L112.945 50.7367C112.098 53.5538 113.777 56.1494 114.533 56.5713C114.785 54.8746 114.912 53.1615 114.912 51.4462C115.641 51.5919 116.26 51.6827 116.156 51.2078C115.923 50.4132 115.505 48.3492 114.592 47.8308C113.374 47.4051 111.945 46.7297 110.755 46.3475C110.581 46.303 110.402 46.2808 110.222 46.2813C110.211 46.8243 106.136 48.9565 106.915 46.2927C106.55 46.8924 105.824 47.2386 105.228 47.5432C105.005 48.8637 104.504 52.1348 104.901 52.4621Z" fill="url(#paint61_linear_7_1942)"/>
<path d="M105.584 104.788C105.584 104.788 104.098 105.248 102.92 104.809C101.496 106.54 98.3286 105.418 98.0752 107.336C98.0752 107.336 101.813 108.506 105.884 107.698C106.074 106.72 105.97 105.707 105.584 104.788Z" fill="url(#paint62_linear_7_1942)"/>
<path style="mix-blend-mode:multiply" opacity="0.5" d="M112.665 57.2865C112.665 57.3319 112.665 57.3773 112.678 57.4208C112.671 57.3489 112.667 57.3035 112.665 57.2865Z" fill="url(#paint63_linear_7_1942)"/>
<path d="M101.885 83.0976C101.636 90.3435 103.56 97.6065 102.919 104.809C102.885 105.011 104.703 105.339 105.584 104.881C105.877 99.1465 107.889 93.0905 106.499 87.3127C106.486 85.1465 107.492 82.9765 108.189 79.0867C108.963 89.354 111.404 100.06 112.93 106.415C113.326 106.574 113.76 106.615 114.179 106.536C114.598 106.456 114.986 106.258 115.297 105.965C114.8 101.803 114.441 90.2905 114.934 79.0149C115.057 74.7259 114.813 70.2762 113.168 66.2635C113.058 66.0176 112.761 65.6165 112.763 65.3724C112.937 64.5438 113.176 63.7321 113.355 62.9016C113.817 60.864 114.248 58.6713 114.533 56.5713C111.886 54.5527 112.822 50.7462 113.699 47.4903L112.695 47.0948C112.476 48.8486 111.984 52.8178 110.666 53.0713C109.033 53.2757 105.406 52.8708 104.907 52.4621C104.51 52.1348 105.011 48.8676 105.232 47.5432C104.947 47.6783 104.674 47.8378 104.417 48.02C104.302 49.5865 103.903 53.4857 102.768 54.6586C102.88 57.0992 103.525 59.8008 103.525 62.2981C103.154 69.3946 101.513 70.3197 101.885 83.0976Z" fill="url(#paint64_linear_7_1942)"/>
<path style="mix-blend-mode:screen" opacity="0.8" d="M110.279 56.35L104.967 55.9716C104.967 55.9716 104.283 56.8892 104.043 57.1257C104.043 57.1257 104.521 62.6311 104.453 63.2441C104.453 63.2441 106.2 64.2297 110.279 63.6224C110.279 63.6224 111.34 58.7811 111.34 57.8711C110.848 57.4755 110.48 56.9478 110.279 56.35Z" fill="url(#paint65_linear_7_1942)"/>
<path d="M102.763 54.6605C103.897 53.4876 104.296 49.5884 104.411 48.0219C104.411 48.0219 102.239 50.1995 102.763 54.6605Z" fill="url(#paint66_linear_7_1942)"/>
<path d="M107.011 60.3911C106.862 60.5481 109.634 69.4721 108.815 69.2111C108.728 69.1467 102.937 69.1808 103.129 68.8327C103.267 68.6662 100.272 60.0997 101.082 60.304C101.188 60.3892 107.212 59.9597 107.011 60.3911Z" fill="url(#paint67_linear_7_1942)"/>
<path style="mix-blend-mode:multiply" opacity="0.5" d="M103.052 68.5451C103.107 68.7059 103.13 69.0238 103.368 69.0143L108.817 69.2035C109.642 69.493 106.858 60.5008 107.013 60.3835C106.974 60.1943 106.762 60.1735 106.603 60.1943L108.596 68.4184C108.605 68.4567 108.604 68.4965 108.595 68.5348C108.586 68.5731 108.569 68.6087 108.544 68.639C108.519 68.6694 108.487 68.6936 108.451 68.7097C108.415 68.7259 108.376 68.7337 108.337 68.7324L103.052 68.5451Z" fill="url(#paint68_linear_7_1942)"/>
<path style="mix-blend-mode:multiply" opacity="0.5" d="M106.484 86.484C106.792 85.1597 107.495 82.3219 108.186 79.0867C108.186 79.0867 107.841 70.0965 107.019 71.1162C106.295 72.0186 105.364 83.3984 106.484 86.484Z" fill="url(#paint69_linear_7_1942)"/>
<path d="M117.99 58.5484C116.437 63.3103 111.546 65.3346 107.488 67.4403C107.448 67.4705 107.354 66.394 107.043 66.0081C107.043 65.9608 107.043 65.9135 107.06 65.8643C109.165 64.2865 112.355 60.1149 114.036 58.8643L114.076 58.7262H114.094C114.273 58.2604 114.422 57.784 114.541 57.2997C116.019 58.3819 117.245 58.5711 117.99 58.5484Z" fill="url(#paint70_linear_7_1942)"/>
<path d="M114.03 58.8586C113.249 56.507 112.779 53.4611 112.779 53.4611L115.082 48.2603C116.532 50.2903 117.729 56.7511 117.984 58.5484C116.819 59.4924 115.343 59.5397 114.03 58.8586Z" fill="url(#paint71_linear_7_1942)"/>
<path d="M107.573 67.4308C107.276 67.6144 106.988 67.8139 106.713 68.0286C106.688 68.2822 103.309 68.9046 105.011 68.1308C105.918 67.8849 106.376 67.4592 107.066 67.0997L107.573 67.4308Z" fill="url(#paint72_linear_7_1942)"/>
<path d="M106.985 67.2946C106.641 67.4495 106.306 67.6225 105.981 67.813C105.919 68.0797 102.222 68.2784 104.156 67.6881C104.644 67.6408 105.185 67.5727 105.185 67.5727L106.493 66.8727L106.985 67.2946Z" fill="url(#paint73_linear_7_1942)"/>
<path d="M106.607 67.0259C106.245 67.1321 105.89 67.2584 105.542 67.4043C105.44 67.6597 101.749 67.3589 103.752 67.0259C104.241 67.0449 104.786 67.0505 104.786 67.0505L106.179 66.5322L106.607 67.0259Z" fill="url(#paint74_linear_7_1942)"/>
<path d="M106.308 66.9597C105.93 66.9388 105.551 66.9388 105.174 66.9597C104.984 67.164 101.628 65.624 103.621 66.0024C104.075 66.1916 104.582 66.3808 104.582 66.3808L106.072 66.3695L106.308 66.9597Z" fill="url(#paint75_linear_7_1942)"/>
<path d="M105.485 66.3638C106.374 66.2067 104.843 65.1094 104.96 64.8881C104.941 64.6043 104.973 64.5646 105.098 64.5948C105.223 64.6251 105.243 65.047 105.665 65.1019C106.087 65.1567 106.374 65.7016 106.8 65.6524C108.059 66.1292 108.189 68.5943 105.89 67.2624L105.485 66.3638Z" fill="url(#paint76_linear_7_1942)"/>
<path d="M103.305 39.5859C104.818 41.5724 103.451 44.9097 107.223 46.1602C108.099 45.7535 111.725 44.3384 110.944 41.0143C110.931 40.4146 111.701 39.9189 111.092 39.0846C110.483 38.2502 110.215 38.9597 110.215 38.9597C110.215 38.9597 109.939 38.2673 109.647 37.6997C109.356 37.1321 103.305 39.5859 103.305 39.5859Z" fill="url(#paint77_linear_7_1942)"/>
<path d="M103.275 39.4383C103.774 39.8792 104.718 40.5224 107.21 40.0211C105.658 38.9219 109.498 39.4232 109.708 40.5319C110.402 41.8751 110.54 39.7751 110.215 38.9597C110.215 38.9597 110.491 38.2521 111.092 39.0846C111.693 39.917 110.931 40.4089 110.944 41.0143C110.944 41.86 111.084 42.4673 110.997 42.7662C110.997 42.7662 112.639 40.4032 111.013 37.2551C109.386 34.107 104.164 36.7575 103.275 39.4383Z" fill="url(#paint78_linear_7_1942)"/>
<path d="M104.187 39.9813C104.075 40.6605 103.075 40.5981 103.052 39.743C103.073 39.3513 104.187 39.9813 104.187 39.9813Z" fill="url(#paint79_linear_7_1942)"/>
<path d="M102.519 39.5765C100.114 41.5497 108.38 39.1583 109.659 38.0743L107.448 36.1351L102.519 39.5765Z" fill="url(#paint80_linear_7_1942)"/>
<path d="M106.851 33.5829C106.851 33.5829 111.167 33.2575 111.78 37.5673C111.788 37.6326 111.782 37.699 111.762 37.7617C111.742 37.8245 111.709 37.8821 111.664 37.9304C111.619 37.9788 111.565 38.0167 111.504 38.0416C111.443 38.0664 111.377 38.0776 111.311 38.0743C108.308 37.9628 105.315 38.4743 102.519 39.5764C102.519 39.5764 101.363 34.124 106.851 33.5829Z" fill="url(#paint81_linear_7_1942)"/>
<path d="M103.748 39.1281C103.905 39.287 104.986 39.4024 106.537 38.4205C106.537 38.4205 105.97 35.1419 106.851 33.5829C105.011 33.0343 103.296 36.0159 103.748 39.1281Z" fill="url(#paint82_linear_7_1942)"/>
<path style="mix-blend-mode:multiply" opacity="0.5" d="M106.229 38.5946C106.327 38.5397 106.431 38.4773 106.537 38.4054C106.537 38.4054 105.97 35.1362 106.847 33.5716C106.749 33.6756 105.185 35.1456 106.229 38.5946Z" fill="url(#paint83_linear_7_1942)"/>
</g>
<defs>
<linearGradient id="paint0_linear_7_1942" x1="28.6087" y1="80.2086" x2="15.4888" y2="102.126" gradientUnits="userSpaceOnUse">
<stop stop-color="#E68924"/>
<stop offset="1" stop-color="#8B5422"/>
</linearGradient>
<linearGradient id="paint1_linear_7_1942" x1="27.2566" y1="82.9027" x2="18.4817" y2="97.5606" gradientUnits="userSpaceOnUse">
<stop stop-color="#E68924"/>
<stop offset="1" stop-color="#8B5422"/>
</linearGradient>
<linearGradient id="paint2_linear_7_1942" x1="26.6555" y1="89.4921" x2="19.5893" y2="101.298" gradientUnits="userSpaceOnUse">
<stop stop-color="#E68924"/>
<stop offset="1" stop-color="#8B5422"/>
</linearGradient>
<linearGradient id="paint3_linear_7_1942" x1="21.8586" y1="91.4976" x2="14.9779" y2="102.993" gradientUnits="userSpaceOnUse">
<stop stop-color="#E68924"/>
<stop offset="1" stop-color="#8B5422"/>
</linearGradient>
<linearGradient id="paint4_linear_7_1942" x1="39.0538" y1="101.019" x2="10.7626" y2="103.04" gradientUnits="userSpaceOnUse">
<stop stop-color="#9E9887"/>
<stop offset="1" stop-color="#A1907D"/>
</linearGradient>
<linearGradient id="paint5_linear_7_1942" x1="38.9876" y1="101.926" x2="10.8174" y2="103.936" gradientUnits="userSpaceOnUse">
<stop stop-color="#9E9887"/>
<stop offset="1" stop-color="#A1907D"/>
</linearGradient>
<linearGradient id="paint6_linear_7_1942" x1="14.3004" y1="103.659" x2="16.5241" y2="103.659" gradientUnits="userSpaceOnUse">
<stop stop-color="#9E9887"/>
<stop offset="1" stop-color="#A1907D"/>
</linearGradient>
<linearGradient id="paint7_linear_7_1942" x1="30.4411" y1="103.659" x2="32.6666" y2="103.659" gradientUnits="userSpaceOnUse">
<stop stop-color="#9E9887"/>
<stop offset="1" stop-color="#A1907D"/>
</linearGradient>
<linearGradient id="paint8_linear_7_1942" x1="140.001" y1="94.1103" x2="111.586" y2="103.748" gradientUnits="userSpaceOnUse">
<stop stop-color="#FFCF30"/>
<stop offset="1" stop-color="#F9A01F"/>
</linearGradient>
<linearGradient id="paint9_linear_7_1942" x1="127.034" y1="87.3524" x2="109.528" y2="109.281" gradientUnits="userSpaceOnUse">
<stop stop-color="#FFCF30"/>
<stop offset="1" stop-color="#F9A01F"/>
</linearGradient>
<linearGradient id="paint10_linear_7_1942" x1="144.596" y1="103.452" x2="129.157" y2="106.673" gradientUnits="userSpaceOnUse">
<stop stop-color="#FFCF30"/>
<stop offset="1" stop-color="#F9A01F"/>
</linearGradient>
<linearGradient id="paint11_linear_7_1942" x1="135.053" y1="89.1856" x2="123.132" y2="91.6728" gradientUnits="userSpaceOnUse">
<stop stop-color="#FFCF30"/>
<stop offset="1" stop-color="#F9A01F"/>
</linearGradient>
<linearGradient id="paint12_linear_7_1942" x1="128.148" y1="88.8886" x2="124.171" y2="112.743" gradientUnits="userSpaceOnUse">
<stop stop-color="#9E9887"/>
<stop offset="1" stop-color="#A1907D"/>
</linearGradient>
<linearGradient id="paint13_linear_7_1942" x1="28.9962" y1="46.6635" x2="36.621" y2="60.9211" gradientUnits="userSpaceOnUse">
<stop stop-color="#EF877E"/>
<stop offset="1" stop-color="#FABEB2"/>
</linearGradient>
<linearGradient id="paint14_linear_7_1942" x1="38.4468" y1="54.6719" x2="61.1602" y2="47.658" gradientUnits="userSpaceOnUse">
<stop stop-color="#EF877E"/>
<stop offset="1" stop-color="#FABEB2"/>
</linearGradient>
<linearGradient id="paint15_linear_7_1942" x1="38.2011" y1="53.8489" x2="60.9049" y2="46.8369" gradientUnits="userSpaceOnUse">
<stop stop-color="#EF877E"/>
<stop offset="1" stop-color="#FABEB2"/>
</linearGradient>
<linearGradient id="paint16_linear_7_1942" x1="37.9797" y1="53.1508" x2="60.6874" y2="46.1407" gradientUnits="userSpaceOnUse">
<stop stop-color="#EF877E"/>
<stop offset="1" stop-color="#FABEB2"/>
</linearGradient>
<linearGradient id="paint17_linear_7_1942" x1="37.8" y1="52.4584" x2="60.4736" y2="45.4577" gradientUnits="userSpaceOnUse">
<stop stop-color="#EF877E"/>
<stop offset="1" stop-color="#FABEB2"/>
</linearGradient>
<linearGradient id="paint18_linear_7_1942" x1="38.2463" y1="53.2832" x2="60.7497" y2="46.3337" gradientUnits="userSpaceOnUse">
<stop stop-color="#EF877E"/>
<stop offset="1" stop-color="#FABEB2"/>
</linearGradient>
<linearGradient id="paint19_linear_7_1942" x1="38.8249" y1="55.9848" x2="61.5646" y2="48.9634" gradientUnits="userSpaceOnUse">
<stop stop-color="#EF877E"/>
<stop offset="1" stop-color="#FABEB2"/>
</linearGradient>
<linearGradient id="paint20_linear_7_1942" x1="48.5167" y1="53.2671" x2="43.9612" y2="48.3538" gradientUnits="userSpaceOnUse">
<stop stop-color="#E6C41F"/>
<stop offset="1" stop-color="#E78025"/>
</linearGradient>
<linearGradient id="paint21_linear_7_1942" x1="39.468" y1="47.8819" x2="37.3346" y2="98.0207" gradientUnits="userSpaceOnUse">
<stop stop-color="#E52E25"/>
<stop offset="1" stop-color="#333333"/>
</linearGradient>
<linearGradient id="paint22_linear_7_1942" x1="42.9905" y1="39.5973" x2="43.1817" y2="43.2846" gradientUnits="userSpaceOnUse">
<stop stop-color="#EF877E"/>
<stop offset="1" stop-color="#FABEB2"/>
</linearGradient>
<linearGradient id="paint23_linear_7_1942" x1="47.7594" y1="47.2105" x2="43.9172" y2="69.0716" gradientUnits="userSpaceOnUse">
<stop stop-color="#E6C41F"/>
<stop offset="1" stop-color="#E78025"/>
</linearGradient>
<linearGradient id="paint24_linear_7_1942" x1="41.6764" y1="44.7527" x2="38.7368" y2="59.0396" gradientUnits="userSpaceOnUse">
<stop stop-color="#E6C41F"/>
<stop offset="1" stop-color="#E78025"/>
</linearGradient>
<linearGradient id="paint25_linear_7_1942" x1="51.7055" y1="48.3908" x2="49.5722" y2="98.5353" gradientUnits="userSpaceOnUse">
<stop stop-color="#E52E25"/>
<stop offset="1" stop-color="#333333"/>
</linearGradient>
<linearGradient id="paint26_linear_7_1942" x1="38.7436" y1="53.8111" x2="38.7814" y2="54.0305" gradientUnits="userSpaceOnUse">
<stop stop-color="#E6C41F"/>
<stop offset="1" stop-color="#E78025"/>
</linearGradient>
<linearGradient id="paint27_linear_7_1942" x1="44.023" y1="48.0711" x2="41.8897" y2="98.2137" gradientUnits="userSpaceOnUse">
<stop stop-color="#E52E25"/>
<stop offset="1" stop-color="#333333"/>
</linearGradient>
<linearGradient id="paint28_linear_7_1942" x1="48.1905" y1="46.0846" x2="45.2547" y2="60.3488" gradientUnits="userSpaceOnUse">
<stop stop-color="#E6C41F"/>
<stop offset="1" stop-color="#E78025"/>
</linearGradient>
<linearGradient id="paint29_linear_7_1942" x1="43.7621" y1="63.0851" x2="44.9887" y2="90.8013" gradientUnits="userSpaceOnUse">
<stop stop-color="#E52E25"/>
<stop offset="1" stop-color="#333333"/>
</linearGradient>
<linearGradient id="paint30_linear_7_1942" x1="44.0608" y1="51.6202" x2="43.4154" y2="58.151" gradientUnits="userSpaceOnUse">
<stop stop-color="#E52E25"/>
<stop offset="1" stop-color="#333333"/>
</linearGradient>
<linearGradient id="paint31_linear_7_1942" x1="-1213.19" y1="66.8274" x2="-1223.09" y2="81.9877" gradientUnits="userSpaceOnUse">
<stop stop-color="#E6C41F"/>
<stop offset="1" stop-color="#E78025"/>
</linearGradient>
<linearGradient id="paint32_linear_7_1942" x1="37.9484" y1="63.6498" x2="38.0902" y2="65.5005" gradientUnits="userSpaceOnUse">
<stop stop-color="#EF877E"/>
<stop offset="1" stop-color="#FABEB2"/>
</linearGradient>
<linearGradient id="paint33_linear_7_1942" x1="38.3087" y1="63.0624" x2="38.3389" y2="65.2154" gradientUnits="userSpaceOnUse">
<stop stop-color="#EF877E"/>
<stop offset="1" stop-color="#FABEB2"/>
</linearGradient>
<linearGradient id="paint34_linear_7_1942" x1="38.6736" y1="62.3719" x2="38.7058" y2="64.8881" gradientUnits="userSpaceOnUse">
<stop stop-color="#EF877E"/>
<stop offset="1" stop-color="#FABEB2"/>
</linearGradient>
<linearGradient id="paint35_linear_7_1942" x1="37.8265" y1="62.4059" x2="39.2095" y2="63.8695" gradientUnits="userSpaceOnUse">
<stop stop-color="#EF877E"/>
<stop offset="1" stop-color="#FABEB2"/>
</linearGradient>
<linearGradient id="paint36_linear_7_1942" x1="39.1046" y1="25.5559" x2="40.562" y2="33.0891" gradientUnits="userSpaceOnUse">
<stop stop-color="#EF877E"/>
<stop offset="1" stop-color="#FABEB2"/>
</linearGradient>
<linearGradient id="paint37_linear_7_1942" x1="38.2369" y1="155.841" x2="41.4317" y2="147.624" gradientUnits="userSpaceOnUse">
<stop stop-color="#5A1F0D"/>
<stop offset="1" stop-color="#B84726"/>
</linearGradient>
<linearGradient id="paint38_linear_7_1942" x1="43.0851" y1="154.511" x2="43.1627" y2="152.793" gradientUnits="userSpaceOnUse">
<stop stop-color="#5A1F0D"/>
<stop offset="1" stop-color="#B84726"/>
</linearGradient>
<linearGradient id="paint39_linear_7_1942" x1="48.347" y1="32.1843" x2="40.136" y2="36.8543" gradientUnits="userSpaceOnUse">
<stop stop-color="#E6C41F"/>
<stop offset="1" stop-color="#E78025"/>
</linearGradient>
<linearGradient id="paint40_linear_7_1942" x1="44.9158" y1="31.6292" x2="37.0813" y2="39.7962" gradientUnits="userSpaceOnUse">
<stop stop-color="#E6C41F"/>
<stop offset="1" stop-color="#E78025"/>
</linearGradient>
<linearGradient id="paint41_linear_7_1942" x1="44.3431" y1="30.6726" x2="43.0036" y2="38.1383" gradientUnits="userSpaceOnUse">
<stop stop-color="#E6C41F"/>
<stop offset="1" stop-color="#E78025"/>
</linearGradient>
<linearGradient id="paint42_linear_7_1942" x1="41.47" y1="32.3072" x2="44.1064" y2="32.7411" gradientUnits="userSpaceOnUse">
<stop stop-color="#E6C41F"/>
<stop offset="1" stop-color="#E78025"/>
</linearGradient>
<linearGradient id="paint43_linear_7_1942" x1="103.763" y1="83.7578" x2="39.8369" y2="105.439" gradientUnits="userSpaceOnUse">
<stop stop-color="#FFCF30"/>
<stop offset="1" stop-color="#F9A01F"/>
</linearGradient>
<linearGradient id="paint44_linear_7_1942" x1="67.7268" y1="70.7568" x2="33.5305" y2="113.598" gradientUnits="userSpaceOnUse">
<stop stop-color="#FFCF30"/>
<stop offset="1" stop-color="#F9A01F"/>
</linearGradient>
<linearGradient id="paint45_linear_7_1942" x1="112.718" y1="101.299" x2="77.9945" y2="108.544" gradientUnits="userSpaceOnUse">
<stop stop-color="#FFCF30"/>
<stop offset="1" stop-color="#F9A01F"/>
</linearGradient>
<linearGradient id="paint46_linear_7_1942" x1="91.064" y1="76.2451" x2="63.6963" y2="81.9546" gradientUnits="userSpaceOnUse">
<stop stop-color="#FFCF30"/>
<stop offset="1" stop-color="#F9A01F"/>
</linearGradient>
<linearGradient id="paint47_linear_7_1942" x1="120.348" y1="92.0235" x2="79.3624" y2="105.923" gradientUnits="userSpaceOnUse">
<stop stop-color="#FFCF30"/>
<stop offset="1" stop-color="#F9A01F"/>
</linearGradient>
<linearGradient id="paint48_linear_7_1942" x1="97.2433" y1="83.6878" x2="75.3193" y2="111.152" gradientUnits="userSpaceOnUse">
<stop stop-color="#FFCF30"/>
<stop offset="1" stop-color="#F9A01F"/>
</linearGradient>
<linearGradient id="paint49_linear_7_1942" x1="126.088" y1="103.269" x2="103.826" y2="107.912" gradientUnits="userSpaceOnUse">
<stop stop-color="#FFCF30"/>
<stop offset="1" stop-color="#F9A01F"/>
</linearGradient>
<linearGradient id="paint50_linear_7_1942" x1="112.206" y1="87.2067" x2="94.6595" y2="90.8675" gradientUnits="userSpaceOnUse">
<stop stop-color="#FFCF30"/>
<stop offset="1" stop-color="#F9A01F"/>
</linearGradient>
<linearGradient id="paint51_linear_7_1942" x1="78.9207" y1="96.6568" x2="50.7985" y2="106.194" gradientUnits="userSpaceOnUse">
<stop stop-color="#FFCF30"/>
<stop offset="1" stop-color="#F9A01F"/>
</linearGradient>
<linearGradient id="paint52_linear_7_1942" x1="63.0677" y1="90.9375" x2="48.0253" y2="109.782" gradientUnits="userSpaceOnUse">
<stop stop-color="#FFCF30"/>
<stop offset="1" stop-color="#F9A01F"/>
</linearGradient>
<linearGradient id="paint53_linear_7_1942" x1="94.0249" y1="86.3705" x2="80.7848" y2="105.485" gradientUnits="userSpaceOnUse">
<stop stop-color="#FFCF30"/>
<stop offset="1" stop-color="#F9A01F"/>
</linearGradient>
<linearGradient id="paint54_linear_7_1942" x1="81.6682" y1="78.12" x2="68.553" y2="97.0511" gradientUnits="userSpaceOnUse">
<stop stop-color="#FFCF30"/>
<stop offset="1" stop-color="#F9A01F"/>
</linearGradient>
<linearGradient id="paint55_linear_7_1942" x1="102.161" y1="48.4735" x2="107.262" y2="66.5919" gradientUnits="userSpaceOnUse">
<stop stop-color="#EF877E"/>
<stop offset="1" stop-color="#FABEB2"/>
</linearGradient>
<linearGradient id="paint56_linear_7_1942" x1="101.533" y1="48.6278" x2="106.639" y2="66.7645" gradientUnits="userSpaceOnUse">
<stop stop-color="#EF877E"/>
<stop offset="1" stop-color="#FABEB2"/>
</linearGradient>
<linearGradient id="paint57_linear_7_1942" x1="102.062" y1="56.8789" x2="105.916" y2="50.679" gradientUnits="userSpaceOnUse">
<stop stop-color="#E6C41F"/>
<stop offset="1" stop-color="#E78025"/>
</linearGradient>
<linearGradient id="paint58_linear_7_1942" x1="111.96" y1="51.3079" x2="114.103" y2="101.617" gradientUnits="userSpaceOnUse">
<stop stop-color="#2F6FB7"/>
<stop offset="1" stop-color="#333333"/>
</linearGradient>
<linearGradient id="paint59_linear_7_1942" x1="108.426" y1="42.9951" x2="108.235" y2="46.6938" gradientUnits="userSpaceOnUse">
<stop stop-color="#EF877E"/>
<stop offset="1" stop-color="#FABEB2"/>
</linearGradient>
<linearGradient id="paint60_linear_7_1942" x1="103.64" y1="50.6329" x2="107.496" y2="72.5697" gradientUnits="userSpaceOnUse">
<stop stop-color="#E6C41F"/>
<stop offset="1" stop-color="#E78025"/>
</linearGradient>
<linearGradient id="paint61_linear_7_1942" x1="109.744" y1="48.1675" x2="112.695" y2="62.5018" gradientUnits="userSpaceOnUse">
<stop stop-color="#E6C41F"/>
<stop offset="1" stop-color="#E78025"/>
</linearGradient>
<linearGradient id="paint62_linear_7_1942" x1="99.6805" y1="51.817" x2="101.823" y2="102.134" gradientUnits="userSpaceOnUse">
<stop stop-color="#2F6FB7"/>
<stop offset="1" stop-color="#333333"/>
</linearGradient>
<linearGradient id="paint63_linear_7_1942" x1="112.688" y1="57.2562" x2="112.65" y2="57.4756" gradientUnits="userSpaceOnUse">
<stop stop-color="#E6C41F"/>
<stop offset="1" stop-color="#E78025"/>
</linearGradient>
<linearGradient id="paint64_linear_7_1942" x1="107.369" y1="51.4973" x2="109.511" y2="101.812" gradientUnits="userSpaceOnUse">
<stop stop-color="#2F6FB7"/>
<stop offset="1" stop-color="#333333"/>
</linearGradient>
<linearGradient id="paint65_linear_7_1942" x1="107.352" y1="55.0578" x2="108.001" y2="61.6113" gradientUnits="userSpaceOnUse">
<stop stop-color="#2F6FB7"/>
<stop offset="1" stop-color="#333333"/>
</linearGradient>
<linearGradient id="paint66_linear_7_1942" x1="103.209" y1="49.5032" x2="106.154" y2="63.8167" gradientUnits="userSpaceOnUse">
<stop stop-color="#E6C41F"/>
<stop offset="1" stop-color="#E78025"/>
</linearGradient>
<linearGradient id="paint67_linear_7_1942" x1="108.206" y1="71.4265" x2="102.767" y2="59.6176" gradientUnits="userSpaceOnUse">
<stop stop-color="#F05323"/>
<stop offset="1" stop-color="#FEC01A"/>
</linearGradient>
<linearGradient id="paint68_linear_7_1942" x1="108.07" y1="71.1181" x2="103.699" y2="61.6302" gradientUnits="userSpaceOnUse">
<stop stop-color="#F05323"/>
<stop offset="1" stop-color="#FEC01A"/>
</linearGradient>
<linearGradient id="paint69_linear_7_1942" x1="107.652" y1="66.5624" x2="106.42" y2="94.3732" gradientUnits="userSpaceOnUse">
<stop stop-color="#2F6FB7"/>
<stop offset="1" stop-color="#333333"/>
</linearGradient>
<linearGradient id="paint70_linear_7_1942" x1="121.274" y1="55.2659" x2="105.848" y2="66.8287" gradientUnits="userSpaceOnUse">
<stop stop-color="#EF877E"/>
<stop offset="1" stop-color="#FABEB2"/>
</linearGradient>
<linearGradient id="paint71_linear_7_1942" x1="116.035" y1="48.0289" x2="113.587" y2="63.8333" gradientUnits="userSpaceOnUse">
<stop stop-color="#E6C41F"/>
<stop offset="1" stop-color="#E78025"/>
</linearGradient>
<linearGradient id="paint72_linear_7_1942" x1="121.909" y1="56.0208" x2="106.436" y2="67.6176" gradientUnits="userSpaceOnUse">
<stop stop-color="#EF877E"/>
<stop offset="1" stop-color="#FABEB2"/>
</linearGradient>
<linearGradient id="paint73_linear_7_1942" x1="121.503" y1="55.4457" x2="106.015" y2="67.0556" gradientUnits="userSpaceOnUse">
<stop stop-color="#EF877E"/>
<stop offset="1" stop-color="#FABEB2"/>
</linearGradient>
<linearGradient id="paint74_linear_7_1942" x1="121.125" y1="54.9273" x2="105.629" y2="66.5449" gradientUnits="userSpaceOnUse">
<stop stop-color="#EF877E"/>
<stop offset="1" stop-color="#FABEB2"/>
</linearGradient>
<linearGradient id="paint75_linear_7_1942" x1="120.675" y1="54.443" x2="105.232" y2="66.0189" gradientUnits="userSpaceOnUse">
<stop stop-color="#EF877E"/>
<stop offset="1" stop-color="#FABEB2"/>
</linearGradient>
<linearGradient id="paint76_linear_7_1942" x1="121.047" y1="54.9386" x2="105.606" y2="66.5127" gradientUnits="userSpaceOnUse">
<stop stop-color="#EF877E"/>
<stop offset="1" stop-color="#FABEB2"/>
</linearGradient>
<linearGradient id="paint77_linear_7_1942" x1="107.746" y1="36.2412" x2="108.379" y2="43.8938" gradientUnits="userSpaceOnUse">
<stop stop-color="#EF877E"/>
<stop offset="1" stop-color="#FABEB2"/>
</linearGradient>
<linearGradient id="paint78_linear_7_1942" x1="109.806" y1="45.4129" x2="105.023" y2="37.9844" gradientUnits="userSpaceOnUse">
<stop stop-color="#5A1F0D"/>
<stop offset="1" stop-color="#B84726"/>
</linearGradient>
<linearGradient id="paint79_linear_7_1942" x1="104.788" y1="45.0663" x2="104.366" y2="43.3951" gradientUnits="userSpaceOnUse">
<stop stop-color="#5A1F0D"/>
<stop offset="1" stop-color="#B84726"/>
</linearGradient>
<linearGradient id="paint80_linear_7_1942" x1="100.494" y1="38.6556" x2="109.674" y2="40.9693" gradientUnits="userSpaceOnUse">
<stop stop-color="#E6C41F"/>
<stop offset="1" stop-color="#E78025"/>
</linearGradient>
<linearGradient id="paint81_linear_7_1942" x1="103.651" y1="37.2013" x2="113.418" y2="43.0022" gradientUnits="userSpaceOnUse">
<stop stop-color="#E6C41F"/>
<stop offset="1" stop-color="#E78025"/>
</linearGradient>
<linearGradient id="paint82_linear_7_1942" x1="107.112" y1="35.7296" x2="110.401" y2="42.547" gradientUnits="userSpaceOnUse">
<stop stop-color="#E6C41F"/>
<stop offset="1" stop-color="#E78025"/>
</linearGradient>
<linearGradient id="paint83_linear_7_1942" x1="106.447" y1="36.5651" x2="104.028" y2="37.6813" gradientUnits="userSpaceOnUse">
<stop stop-color="#E6C41F"/>
<stop offset="1" stop-color="#E78025"/>
</linearGradient>
<clipPath id="clip0_7_1942">
<rect width="149" height="112" fill="white"/>
</clipPath>
</defs>
</svg>
