<svg width="222" height="193" viewBox="0 0 222 193" fill="none" xmlns="http://www.w3.org/2000/svg">
<g opacity="0.5">
<path opacity="0.5" d="M191.198 168.767C195.59 172.465 23.2491 172.465 27.6447 168.767C23.2546 165.07 195.596 165.07 191.198 168.767Z" fill="#FFE2B3"/>
<g opacity="0.3">
<path opacity="0.8" d="M184.64 94.4707C182.975 191.825 35.9004 191.798 34.2354 94.4707C35.9198 -2.88397 182.975 -2.87018 184.64 94.4707Z" fill="#FFE2B3"/>
<path opacity="0.6" d="M94.6609 125.02C93.6786 182.06 7.5259 182.051 6.54077 125.02C7.52312 67.9774 93.6869 67.9856 94.6609 125.02ZM124.19 125.02C125.172 182.06 211.325 182.051 212.31 125.02C211.327 67.9774 125.153 67.9856 124.19 125.02Z" fill="#FFE2B3"/>
<path opacity="0.5" d="M151.937 80.8367C152.608 119.916 211.644 119.911 212.31 80.8367C211.638 41.7542 152.603 41.7624 151.937 80.8367ZM66.9137 80.8367C66.2421 119.916 7.20955 119.911 6.54077 80.8367C7.2151 41.7542 66.2477 41.7624 66.9137 80.8367Z" fill="#FFE2B3"/>
</g>
</g>
<g opacity="0.5">
<path opacity="0.8" d="M28.2497 119.478C27.4172 119.238 28.3551 118.546 28.6854 118.083C32.1375 114.041 36.8022 108.775 40.5735 104.438C39.186 105.816 37.6847 107.338 36.2389 108.794C26.2905 118.805 26.2017 118.805 25.9353 118.808C25.4997 118.778 25.5496 118.309 25.8077 118.083C30.1589 112.999 36.1557 106.503 40.74 101.248C36.7107 105.279 31.1496 110.958 27.3256 114.758C23.4129 118.461 23.8818 118.452 23.1631 118.24C22.9023 117.986 23.091 117.763 23.8818 116.826C28.2441 111.777 34.4907 105.047 39.2109 99.7314C35.3703 103.484 20.4214 118.786 21.5869 117.101C21.5429 117.102 21.4991 117.094 21.4581 117.078C21.4172 117.062 21.3798 117.038 21.3483 117.008C21.0902 116.754 21.2484 116.566 22.1253 115.541C26.4126 110.617 32.3733 104.187 37.0326 98.998C35.5063 100.528 33.8163 102.232 32.2013 103.859C20.8987 115.249 20.2577 115.783 19.9358 115.8C19.2753 115.566 19.5334 115.364 20.4908 114.215C24.8725 109.191 30.9775 102.596 35.7228 97.3051C33.4639 99.5494 30.7694 102.246 28.344 104.672C18.6454 114.377 18.6149 114.377 18.379 114.38C18.3351 114.381 18.2915 114.373 18.2509 114.356C18.2104 114.34 18.1737 114.315 18.1431 114.284C17.8018 113.652 18.848 113.026 19.3142 112.296C22.8939 108.132 27.6392 102.946 31.7351 98.3997C28.4856 101.535 18.9951 111.543 17.1192 112.646C17.0289 112.645 16.9424 112.609 16.8777 112.547C16.5669 112.034 17.2357 111.733 17.5521 111.231C21.956 106.202 28.2525 99.3757 32.9283 94.1371C31.083 95.9817 28.899 98.1901 26.8233 100.275C16.7889 110.41 16.2534 110.862 15.9426 110.865C15.2877 110.647 15.5485 110.415 16.4337 109.348C20.4048 104.744 25.8993 98.7609 30.2366 93.8835C28.5355 95.5791 26.5986 97.5146 24.7587 99.3564C15.0962 109.006 15.0601 109.006 14.8215 109.006C14.2665 108.844 14.383 108.631 15.0157 107.904C19.1283 103.183 24.7643 96.9549 28.9767 92.1051C26.901 94.0654 14.1555 107.148 14.63 106.258C14.5863 106.259 14.5429 106.251 14.5023 106.235C14.4618 106.219 14.425 106.194 14.3941 106.164C14.075 105.667 14.7854 105.306 15.1017 104.785C18.1015 101.201 22.0725 96.6323 25.4358 92.7062C24.3453 93.809 23.1881 94.9753 22.1058 96.0616C14.3497 103.702 14.938 103.685 14.1194 103.476C13.7142 102.924 15.3654 101.57 15.9648 100.633C17.7907 98.3859 20.4769 95.1435 22.5276 92.6372C11.9826 103.602 13.3174 101.035 18.6177 93.5361C17.5965 94.5562 17.5743 94.5562 17.4327 94.5562C17.3629 94.5552 17.2953 94.5321 17.2397 94.4902C17.184 94.4483 17.1433 94.3898 17.1235 94.3233C17.1037 94.2568 17.1058 94.1858 17.1294 94.1205C17.1531 94.0553 17.1972 93.9993 17.2551 93.9607C17.4133 93.8256 18.2763 92.9598 18.9201 92.3229C20.4492 90.79 20.4492 90.79 20.6101 90.79C21.4704 91.0519 20.3687 91.9562 20.0551 92.5904C19.0866 94.0268 17.6159 96.1526 16.542 97.7352C18.0654 96.3125 26.6568 87.3573 26.1518 88.2865C26.7068 88.4491 26.568 88.6835 25.9603 89.4445C23.5072 92.5683 20.1994 96.5 17.5077 99.8086C18.7758 98.5403 20.2494 97.0514 21.6452 95.6398C29.4513 87.7433 29.529 87.7433 29.7926 87.7406C30.2144 87.7654 30.1866 88.2231 29.9313 88.4436C26.7845 92.2347 22.6414 96.9494 19.1865 101.005C42.8545 76.8829 30.3448 92.0059 20.574 102.629C21.7839 101.422 23.0715 100.148 24.2981 98.907C34.7682 88.4298 34.8264 88.4298 35.0679 88.4298C35.7172 88.6559 35.448 88.8848 34.5545 89.9683C30.4919 94.6803 24.842 100.842 20.4186 105.808C22.2279 103.988 24.3564 101.838 26.3627 99.8086C36.3915 89.6733 36.9271 89.2211 37.2379 89.2184C37.9095 89.472 37.6736 89.6209 36.5719 90.9581C32.3206 95.8741 26.4543 102.235 21.7617 107.465C24.3425 104.984 40.0767 88.8848 38.939 90.4812C38.9826 90.4805 39.0259 90.4885 39.0664 90.5046C39.1068 90.5207 39.1437 90.5446 39.1749 90.5749C39.4773 91.0243 38.9223 91.2559 38.6643 91.6557C33.9717 96.9494 27.7252 103.735 22.8468 109.244C24.3813 107.713 26.1407 105.951 27.8778 104.214C40.5707 91.7191 39.9824 91.7329 40.8177 91.9452C41.0785 92.1989 40.9148 92.3891 40.0046 93.4534C35.5646 98.5568 29.3236 105.287 24.5229 110.644C26.7151 108.46 29.3514 105.803 31.7157 103.42C41.7057 93.3486 41.7806 93.3458 42.0498 93.3458C42.1389 93.3461 42.2244 93.3807 42.2884 93.4423C42.5493 93.6987 42.3633 93.9166 41.4726 94.9615C37.2684 99.8086 31.5048 106.018 26.8705 111.176C28.3052 109.734 29.8592 108.176 31.3577 106.677C42.4327 95.546 43.0127 95.0525 43.3068 95.0497C43.9756 95.2786 43.687 95.5322 42.7518 96.6902C38.4395 101.708 32.3706 108.248 27.6725 113.509C31.7989 109.461 45.5046 95.2703 44.6971 96.6902C44.7871 96.6903 44.8736 96.7249 44.9385 96.7867C45.1911 97.0349 45.0717 97.2113 44.0117 98.4769C40.3043 102.828 35.4092 108.201 31.2023 112.941C36.0502 108.154 45.6822 98.1708 45.2799 99.1027C45.735 99.1579 45.6739 99.5742 45.3714 99.8692C41.8028 104.118 37.1769 109.288 33.2336 113.831C34.1022 112.96 35.0068 112.05 35.8809 111.168C45.3437 101.565 46.2511 100.749 45.7433 102.444C42.6186 106.28 38.445 111.074 35.0262 115.149C36.8938 113.36 46.5924 103.346 45.907 104.432C45.9507 104.431 45.9941 104.439 46.0346 104.455C46.0752 104.471 46.112 104.495 46.1429 104.526C46.4426 104.967 45.8848 105.248 45.6406 105.679C43.5982 108.276 40.9425 111.526 38.6171 114.41C45.0717 107.928 45.6573 107.242 45.4713 108.593C44.8886 109.006 41.5863 112.376 38.9612 114.984C35.1039 118.844 35.1095 118.844 34.9236 118.844C34.413 118.689 34.4768 118.505 35.0401 117.815C37.2268 115.058 40.1295 111.51 42.5326 108.54C41.9443 109.128 41.3283 109.748 40.7178 110.363C31.8156 119.326 31.7184 119.329 31.4548 119.329C31.3656 119.329 31.28 119.295 31.2162 119.233C30.9581 118.979 30.9581 118.979 33.5361 115.924C35.8698 113.15 39.2803 109.153 41.8611 106.109C40.1683 107.796 38.1703 109.809 36.3693 111.623C28.5799 119.467 28.5355 119.467 28.2913 119.47L28.2497 119.478ZM44.9885 108.607C45.0263 108.644 45.0731 108.672 45.1245 108.687C45.0735 108.671 45.0269 108.643 44.9885 108.607ZM17.4411 93.9441C17.4838 93.9438 17.5262 93.9519 17.5657 93.968C17.6053 93.9841 17.6412 94.0078 17.6714 94.0379C17.6223 93.9896 17.559 93.958 17.4908 93.9476C17.4225 93.9372 17.3526 93.9485 17.2912 93.98C17.3374 93.9558 17.3889 93.9435 17.4411 93.9441ZM108.067 54.1062C107.465 53.9325 108.145 53.4252 108.386 53.0833C110.92 50.1166 114.344 46.2538 117.111 43.0721C116.103 44.0812 114.991 45.2006 113.931 46.2676C106.63 53.6154 106.566 53.6154 106.371 53.6154C106.05 53.5933 106.094 53.2515 106.277 53.0833C109.468 49.3529 113.87 44.5775 117.233 40.7285C113.944 43.8661 107.343 51.0843 104.501 53.2708C104.018 53.1108 104.224 52.9178 104.854 52.1679C108.053 48.4623 112.624 43.5243 116.101 39.6284C113.281 42.3856 102.314 53.6126 103.169 52.3747C103.137 52.3757 103.105 52.3701 103.075 52.3583C103.044 52.3464 103.017 52.3285 102.994 52.3058C102.672 51.8122 104.54 50.2765 105.214 49.3418C107.812 46.4358 111.697 42.1926 114.491 39.088C93.4011 60.5937 102.448 49.7554 113.542 37.8335C111.877 39.4878 109.907 41.4592 108.128 43.2375C101.013 50.362 100.988 50.362 100.816 50.362C100.783 50.3632 100.751 50.3574 100.721 50.345C100.691 50.3327 100.663 50.314 100.641 50.2903C100.408 49.7968 101.149 49.3887 101.501 48.8318C104.127 45.7768 107.606 41.972 110.617 38.6303C108.231 40.9325 101.268 48.2803 99.8891 49.0827C99.2814 48.9007 99.9612 48.3879 100.208 48.046C103.438 44.3542 108.061 39.3499 111.491 35.4955C93.2041 54.2606 96.6784 49.2812 109.513 35.3273C90.4458 54.6273 98.743 44.9993 108.589 34.0369C107.065 35.4762 97.7135 45.0655 98.0604 44.4231C97.9962 44.4229 97.9346 44.3982 97.8883 44.3542C97.6552 43.9902 98.1658 43.7255 98.4072 43.3423C100.611 40.7037 103.522 37.3593 105.991 34.4781C94.3863 46.4772 96.1095 43.5959 103.863 34.4367C96.1539 42.46 97.1252 40.5741 101.01 35.0957C100.264 35.8429 100.244 35.8429 100.142 35.8429C100.09 35.8428 100.04 35.8263 99.999 35.7958C99.9578 35.7652 99.9276 35.7223 99.913 35.6734C99.8983 35.6244 99.8999 35.5721 99.9176 35.5241C99.9353 35.4762 99.9681 35.4352 100.011 35.4072C100.255 35.239 102.456 32.8514 102.464 33.0802C103.494 33.0471 99.7642 37.4916 99.4839 38.1754C100.594 37.1332 106.907 30.5602 106.535 31.2439C106.943 31.3625 106.84 31.5334 106.396 32.0931C104.593 34.3595 102.167 37.249 100.192 39.6698C101.121 38.7406 102.203 37.646 103.227 36.6093C108.955 30.8193 109.013 30.8193 109.205 30.8193C109.516 30.8386 109.496 31.175 109.307 31.3349C106.999 34.1169 103.957 37.5771 101.421 40.5521C118.695 22.9394 109.613 33.9625 102.437 41.7459C122.036 21.8945 110.689 34.9992 102.32 44.084C103.655 42.7467 105.217 41.1669 106.696 39.6725C114.055 32.2282 114.447 31.9001 114.674 31.9001C114.741 31.9005 114.804 31.9262 114.852 31.9718C115.041 32.1566 114.949 32.2779 114.186 33.1767C111.067 36.783 106.763 41.4481 103.319 45.2888C105.212 43.4664 116.764 31.6548 115.923 32.8265C115.955 32.8257 115.987 32.8314 116.016 32.8433C116.046 32.8551 116.073 32.8729 116.095 32.8955C116.353 33.3697 115.093 34.2437 114.622 34.9275C111.555 38.3381 107.279 43.0114 104.104 46.5957C125.785 24.613 116.731 35.3273 105.334 47.6241C106.943 46.0222 108.877 44.0729 110.606 42.3221C117.938 34.933 117.99 34.933 118.187 34.9302C118.252 34.9331 118.314 34.9584 118.362 35.0019C118.665 35.5368 116.75 37.1084 116.026 38.0954C113.514 40.905 109.799 44.969 107.046 48.0212C128.011 26.6781 117.868 38.6882 107.623 49.7361C123.782 33.0802 124.39 33.7585 110.212 49.3225C126.524 32.6528 121.312 39.2479 111.702 49.9787C127.015 34.3182 120.305 42.551 113.018 50.9437C114.391 49.6286 121.504 42.2835 121.004 43.0804C121.803 43.2789 120.105 44.696 119.744 45.3357C118.606 46.7556 116.969 48.7739 115.651 50.4033C120.549 45.6362 120.111 45.6473 120.682 45.7989C120.96 46.2538 117.677 48.8318 115.906 50.8252C113.076 53.6595 113.076 53.6595 112.943 53.6623C112.911 53.6626 112.879 53.6564 112.849 53.644C112.82 53.6317 112.793 53.6135 112.771 53.5906C112.612 53.4362 112.676 53.3562 113.029 52.9068C114.633 50.8831 116.764 48.2803 118.515 46.0994C113.639 50.9603 110.426 54.3433 110.387 54.0179C110.354 54.0186 110.322 54.0126 110.292 54.0003C110.262 53.9879 110.235 53.9695 110.212 53.9463C110.023 53.7615 110.023 53.7615 111.913 51.5117C113.625 49.4742 116.128 46.5488 118.018 44.31C116.778 45.548 115.31 47.0231 113.989 48.3548C108.272 54.1117 108.239 54.1117 108.061 54.1117L108.067 54.1062ZM120.352 46.1298C120.38 46.1572 120.414 46.1771 120.452 46.1877C120.414 46.1766 120.38 46.1567 120.352 46.1298ZM100.136 35.3769C100.167 35.3766 100.199 35.3826 100.228 35.3944C100.257 35.4062 100.283 35.4237 100.305 35.4458C100.27 35.4099 100.224 35.3862 100.174 35.3782C100.124 35.3703 100.073 35.3785 100.028 35.4017C100.061 35.3832 100.098 35.3728 100.136 35.3714V35.3769ZM195.543 112.593C195.144 112.478 195.596 112.141 195.754 111.912C197.439 109.944 199.714 107.374 201.554 105.259C188.511 118.519 196.037 109.836 201.634 103.702C199.451 105.789 195.06 110.595 193.173 112.039C192.852 111.934 192.988 111.805 193.407 111.3C195.535 108.838 198.582 105.557 200.882 102.968C188.034 116.073 190.953 112.185 199.82 102.607C185.925 116.784 191.83 109.668 199.19 101.78C198.08 102.883 196.773 104.19 195.582 105.364C190.865 110.098 190.837 110.098 190.723 110.098C190.465 110.057 190.548 109.823 190.723 109.63C192.618 107.341 195.049 104.741 197.231 102.304C195.646 103.834 191.017 108.714 190.102 109.252C189.696 109.13 190.149 108.791 190.312 108.562C192.46 106.109 195.532 102.772 197.805 100.222C185.748 112.607 188.006 109.321 196.49 100.109C183.886 112.869 189.336 106.525 195.876 99.2516C194.863 100.208 188.647 106.588 188.878 106.144C188.47 106.023 188.947 105.667 189.108 105.425C190.571 103.674 192.507 101.449 194.148 99.5356C186.483 107.471 187.601 105.557 192.735 99.5053C187.621 104.835 188.259 103.564 190.829 99.9464C190.226 100.498 190.396 100.498 190.135 100.396C189.985 100.079 190.615 99.8196 190.967 99.3536C191.714 98.6065 191.714 98.6065 191.8 98.6065C192.424 98.7195 190.041 101.444 189.819 101.992C197.716 93.8724 194.478 98.0109 190.287 102.985C199.833 93.1776 196.612 97.3437 191.12 103.569C202.531 91.9259 196.565 99.1965 191.794 104.361C204.69 91.289 197.289 99.883 191.717 105.913C205.012 92.2871 200.125 98.3859 192.38 106.718C193.64 105.505 201.315 97.6552 200.758 98.4328C201.124 98.5293 200.774 98.827 200.624 99.009C198.335 101.59 195.288 104.898 192.907 107.586C207.209 93.0756 201.285 100.12 193.723 108.267C206.302 95.3889 203.777 98.9235 194.866 108.543C208.68 94.4818 202.062 102.359 195.249 109.682C205.938 98.6533 206.349 99.1248 196.972 109.406C207.717 98.4107 204.326 102.748 197.963 109.842C208.056 99.5108 203.682 104.923 198.834 110.484C199.747 109.61 204.476 104.727 204.143 105.246C204.898 105.298 200.98 109.409 200.586 110.112C203.843 106.944 203.552 106.952 203.916 107.052C204.013 107.451 201.973 108.998 200.741 110.393C198.862 112.276 198.862 112.276 198.773 112.276C197.999 112.276 202.12 107.917 202.475 107.253C192.749 117.192 198.035 110.774 202.145 106.062C201.313 106.889 200.347 107.868 199.467 108.75C195.668 112.577 195.646 112.577 195.527 112.577L195.543 112.593ZM203.707 107.291C203.726 107.31 203.749 107.323 203.774 107.33C203.749 107.324 203.725 107.31 203.707 107.291ZM190.271 100.142C190.292 100.142 190.313 100.145 190.332 100.153C190.352 100.16 190.37 100.172 190.385 100.186C190.36 100.163 190.329 100.148 190.296 100.143C190.263 100.138 190.229 100.144 190.199 100.159C190.221 100.148 190.246 100.142 190.271 100.142Z" fill="#FECB86"/>
</g>
<g style="mix-blend-mode:multiply" opacity="0.5">
<path d="M11.9326 83.784C23.4581 77.0896 35.583 71.4704 48.1519 66.9986C36.6267 73.6936 24.5018 79.3127 11.9326 83.784ZM64.4745 46.1298C76.1848 39.803 88.2772 34.2008 100.683 29.3553C88.9723 35.6821 76.8799 41.2842 64.4745 46.1298ZM191.955 118.174C199.539 114.032 207.391 110.394 215.459 107.286C207.877 111.43 200.025 115.067 191.955 118.174Z" fill="#FECB86"/>
</g>
<path d="M86.4107 167.949C86.4579 163.441 86.4384 157.422 86.1526 152.903C83.2888 132.552 92.5934 116.332 113.972 125.017C118.09 127.25 120.762 130.989 121.187 135.318C121.65 142.679 121.922 157.392 122.019 167.949H86.4107Z" fill="#5C5444"/>
<path d="M178.433 167.949H122.017C121.931 157.383 121.653 142.69 121.184 135.318C120.754 130.989 118.082 127.25 113.969 125.017C92.5824 116.335 83.289 132.555 86.15 152.903C86.4275 157.4 86.4275 163.482 86.4081 167.949C86.0584 167.844 49.3979 168.15 49.1176 167.841L43.2291 163.846C42.0164 163.482 49.5255 150.766 49.273 150.231V145.718C49.2736 145.637 49.2903 145.557 49.3222 145.483C49.3541 145.408 49.4006 145.341 49.4589 145.285L56.4963 138.489C56.6323 138.163 58.8717 124.725 58.1419 122.549C57.0957 119.321 54.8563 113.9 55.2171 111.038C55.6194 107.972 64.727 96.4256 65.2071 95.8217C65.2293 95.7831 70.3075 87.8536 70.3353 87.8067C70.4296 87.4759 82.1928 81.7134 82.4121 81.4984C89.9046 81.8485 102.3 83.5221 111.469 81.7741C115.16 81.3495 117.965 80.8863 118.781 80.8449C119.483 81.1372 131.585 82.2235 131.668 83.274C133.611 84.9007 138.606 89.1357 140.301 90.9471C142.294 93.0646 156.729 102.111 158.569 103.261C159.638 105.262 163.037 117.857 163.789 120.407C164.161 121.494 165.77 124.047 167.624 126.801C170.457 131.212 173.729 135.106 174.359 136.578C174.098 141.954 173.657 150.772 173.393 156.154C174.681 158.511 177.686 164.662 178.977 167.069C179.023 167.161 179.046 167.264 179.041 167.368C179.037 167.471 179.006 167.571 178.951 167.66C178.897 167.748 178.821 167.821 178.73 167.871C178.639 167.922 178.537 167.948 178.433 167.949Z" fill="url(#paint0_linear_3_825)"/>
<g style="mix-blend-mode:multiply" opacity="0.5">
<path d="M130.786 159.809C130.614 151.651 130.508 141.166 129.953 134.094C127.481 114.322 96.4202 110.79 86.7021 126.749C79.2623 139.04 83.83 154.485 82.9448 167.949H89.108C89.1524 163.441 89.1358 157.422 88.8472 152.903C85.9834 132.552 95.288 116.332 116.669 125.017C120.785 127.25 123.457 130.989 123.884 135.318C124.348 142.679 124.622 157.391 124.717 167.949H130.88C130.866 165.577 130.836 162.829 130.786 159.809ZM52.4475 156.33C52.4475 156.854 50.8519 160.35 50.8519 160.35L59.0159 167.742L58.8467 167.962H49.4699C49.3452 167.962 49.2235 167.924 49.1203 167.855L43.2317 163.86C43.1113 163.778 43.0245 163.656 42.9874 163.515C42.9502 163.375 42.965 163.226 43.0292 163.096C43.1152 162.638 50.2025 149.39 49.2785 149.236L61.4108 147.413L76.3958 148.899L63.7945 151.086C63.7945 151.086 52.4475 155.792 52.4475 156.33ZM167.61 126.798L158.658 123.812L145.133 121.529L129.645 104.496L143.487 114.973C148.463 115.596 159.008 118.745 163.781 120.404C164.152 121.491 165.759 124.044 167.61 126.798ZM94.769 99.7645L83.5858 107.018L76.3985 114.711L67.6129 115.643L56.499 138.489C56.499 138.171 58.966 124.703 58.1418 122.547C60.1176 117.86 63.0869 111.038 63.0869 111.038L76.4069 106.936L82.5285 101.796L94.769 99.7645ZM178.416 167.949H142.657C147.283 166.471 162.057 162.021 166.02 159.578L171.442 147.4V138.489L174.07 142.269L173.385 156.143C174.514 158.348 177.791 164.756 178.968 167.061C179.017 167.154 179.041 167.258 179.037 167.364C179.034 167.469 179.002 167.571 178.947 167.661C178.891 167.751 178.813 167.824 178.72 167.875C178.626 167.925 178.522 167.951 178.416 167.949Z" fill="#9E9887"/>
</g>
<path d="M128.086 159.81C127.914 151.651 127.808 141.166 127.253 134.094C124.781 114.322 93.7202 110.79 84.0021 126.749C76.5623 139.04 81.13 154.485 80.242 167.949H86.4053C86.4524 163.441 86.433 157.422 86.1472 152.903C83.2834 132.552 92.588 116.332 113.967 125.017C118.085 127.25 120.757 130.989 121.182 135.318C121.645 142.679 121.917 157.392 122.014 167.949H128.175C128.166 165.577 128.133 162.829 128.086 159.81Z" fill="url(#paint1_linear_3_825)"/>
<g style="mix-blend-mode:multiply" opacity="0.5">
<path d="M122.308 101.292H84.7596C84.0515 101.292 83.4775 101.862 83.4775 102.566V111.877C83.4775 112.58 84.0515 113.15 84.7596 113.15H122.308C123.016 113.15 123.59 112.58 123.59 111.877V102.566C123.59 101.862 123.016 101.292 122.308 101.292Z" fill="#9E9887"/>
</g>
<path d="M122.536 99.9657H86.0139C85.0223 99.9657 84.2185 100.764 84.2185 101.75V110.04C84.2185 111.026 85.0223 111.824 86.0139 111.824H122.536C123.527 111.824 124.331 111.026 124.331 110.04V101.75C124.331 100.764 123.527 99.9657 122.536 99.9657Z" fill="#F2DDBC"/>
<path d="M87.3377 101.796C87.3544 102.965 85.4896 102.965 85.5062 101.796C85.5229 100.627 87.3544 100.636 87.3377 101.796Z" fill="url(#paint2_linear_3_825)"/>
<path d="M87.3377 109.991C87.3544 111.16 85.4896 111.16 85.5062 109.991C85.5229 108.822 87.3544 108.822 87.3377 109.991Z" fill="url(#paint3_linear_3_825)"/>
<path d="M123.044 101.796C123.06 102.965 121.195 102.965 121.212 101.796C121.229 100.627 123.06 100.636 123.044 101.796Z" fill="url(#paint4_linear_3_825)"/>
<path d="M123.044 109.991C123.06 111.16 121.195 111.16 121.212 109.991C121.229 108.822 123.06 108.822 123.044 109.991Z" fill="url(#paint5_linear_3_825)"/>
<path d="M182.09 168.767L93.2151 167.841C93.2151 167.841 99.0676 162.379 100.533 162.225C101.998 162.07 102.289 158.751 104.923 156.228C107.556 153.705 108.436 151.85 110.775 151.193C113.115 150.537 117.799 147.204 119.264 145.128C121.118 142.357 124.326 140.441 127.287 139.564C130.023 138.13 134.421 134.436 135.925 134.551C138.586 135.103 141.503 138.411 143.196 139.638C154.645 148.737 157.504 141.463 161.608 145.536C163.681 149.74 165.254 148.715 169.725 153.68C171.066 155.284 172.313 156.964 173.457 158.712C178.394 166.509 176.665 164.519 182.09 168.767Z" fill="url(#paint6_linear_3_825)"/>
<path style="mix-blend-mode:multiply" opacity="0.5" d="M129.665 168.222L93.2151 167.841C93.2151 167.841 99.0676 162.379 100.533 162.225C101.998 162.07 102.289 158.751 104.923 156.228C107.556 153.705 108.436 151.85 110.775 151.193C113.115 150.537 117.799 147.204 119.264 145.128C121.101 142.371 124.339 140.441 127.287 139.564L122.452 145.536C122.39 146.77 122.521 148.006 122.841 149.2C123.36 150.854 117.663 153.791 118.44 156.471C119.217 159.151 117.405 162.591 117.405 162.591C118.573 164.116 118.876 164.93 121.19 165.884C124.245 166.821 127.389 167.32 129.665 168.222Z" fill="url(#paint7_linear_3_825)"/>
<path style="mix-blend-mode:multiply" opacity="0.5" d="M182.09 168.767L160.262 168.541C160.262 168.541 166.348 167.182 168.587 166.672C170.826 166.162 171.692 165.142 172.194 164.632C172.527 161.626 168.482 161.985 173.452 158.712C178.399 166.531 176.668 164.519 182.09 168.767Z" fill="url(#paint8_linear_3_825)"/>
<path style="mix-blend-mode:multiply" opacity="0.5" d="M161.608 145.53H156.635L153.963 146.404C153.963 146.404 150.938 145.894 150.161 145.544C149.384 145.194 143.418 139.845 143.201 139.649C154.69 148.751 157.484 141.441 161.608 145.53Z" fill="url(#paint9_linear_3_825)"/>
<path d="M116.522 168.767L27.6475 167.841C27.6475 167.841 33.4999 162.379 34.9651 162.225C36.4303 162.07 36.7217 158.751 39.3552 156.228C41.9887 153.705 42.8683 151.85 45.2077 151.193C47.547 150.537 52.234 147.204 53.6964 145.128C55.5529 142.357 58.758 140.441 61.7189 139.564C64.4551 138.13 68.8534 134.436 70.3575 134.551C73.0187 135.103 75.9352 138.411 77.628 139.638C89.0776 148.737 91.9387 141.463 96.0401 145.536C98.113 149.74 99.6865 148.715 104.157 153.68C105.499 155.284 106.745 156.964 107.889 158.712C112.826 166.509 111.097 164.519 116.522 168.767Z" fill="url(#paint10_linear_3_825)"/>
<path style="mix-blend-mode:multiply" opacity="0.5" d="M64.1026 168.222L27.6475 167.841C27.6475 167.841 33.4999 162.379 34.9651 162.225C36.4303 162.07 36.7217 158.751 39.3552 156.228C41.9887 153.705 42.8683 151.85 45.2077 151.193C47.547 150.537 52.234 147.204 53.6964 145.128C55.5334 142.371 58.7719 140.441 61.7189 139.564L56.8876 145.53C56.8236 146.764 56.9547 148.001 57.2761 149.195C57.7923 150.849 52.0952 153.785 52.8722 156.465C53.6492 159.145 51.8371 162.586 51.8371 162.586C53.0082 164.111 53.3079 164.924 55.6222 165.878C58.6775 166.821 61.8216 167.32 64.1026 168.222Z" fill="url(#paint11_linear_3_825)"/>
<path style="mix-blend-mode:multiply" opacity="0.5" d="M116.522 168.767L94.6941 168.541C94.6941 168.541 100.78 167.182 103.019 166.672C105.259 166.162 106.127 165.142 106.627 164.632C106.96 161.626 102.914 161.985 107.884 158.712C112.831 166.531 111.1 164.519 116.522 168.767Z" fill="url(#paint12_linear_3_825)"/>
<path style="mix-blend-mode:multiply" opacity="0.5" d="M96.0401 145.53H91.0673L88.395 146.404C88.395 146.404 85.3702 145.894 84.5932 145.544C83.8162 145.194 77.85 139.845 77.6335 139.649C89.122 148.751 91.9165 141.441 96.0401 145.53Z" fill="url(#paint13_linear_3_825)"/>
<path d="M81.4687 168.767L20.488 168.133C20.488 168.133 24.5035 164.384 25.508 164.273C26.5126 164.163 26.7124 161.891 28.5189 160.162C30.3254 158.434 30.9304 157.157 32.5371 156.705C34.1438 156.253 37.3545 153.967 38.3646 152.542C39.6383 150.639 41.8389 149.332 43.8702 148.723C45.7461 147.739 48.7653 145.205 49.7976 145.282C51.6235 145.654 53.6243 147.923 54.7926 148.773C62.6486 155.02 64.6105 150.027 67.4272 152.82C68.848 155.707 69.9247 155.001 72.9938 158.409C73.9151 159.509 74.7703 160.661 75.5551 161.861C78.9323 167.218 77.7474 165.853 81.4687 168.767Z" fill="url(#paint14_linear_3_825)"/>
<path style="mix-blend-mode:multiply" opacity="0.5" d="M45.51 168.393L20.5017 168.133C20.5017 168.133 24.5171 164.384 25.5217 164.273C26.5262 164.163 26.726 161.891 28.5326 160.162C30.3391 158.434 30.944 157.157 32.5508 156.705C34.1575 156.253 37.3682 153.967 38.3783 152.542C39.6381 150.642 41.8609 149.332 43.8839 148.723L40.5677 152.82C40.5278 153.668 40.6214 154.516 40.8452 155.335C41.2004 156.473 37.2932 158.486 37.826 160.322C38.3588 162.159 37.1156 164.521 37.1156 164.521C37.901 165.553 38.1452 166.145 39.713 166.782C41.7776 167.433 43.9338 167.775 45.51 168.393Z" fill="url(#paint15_linear_3_825)"/>
<path style="mix-blend-mode:multiply" opacity="0.5" d="M81.4686 168.767L66.4836 168.613C67.0164 168.365 73.9761 167.43 74.6782 165.93C74.8586 163.824 72.1807 164.083 75.5385 161.869C78.9351 167.226 77.7474 165.853 81.4686 168.767Z" fill="url(#paint16_linear_3_825)"/>
<path style="mix-blend-mode:multiply" opacity="0.5" d="M67.416 152.823H64.0027L62.1601 153.413C62.1601 153.413 60.0844 153.063 59.5516 152.823C59.0188 152.583 54.9451 148.913 54.7842 148.778C62.668 155.034 64.5855 150.022 67.416 152.823Z" fill="url(#paint17_linear_3_825)"/>
<path d="M201.668 168.767L140.693 168.133C140.693 168.133 144.708 164.384 145.713 164.273C146.717 164.163 146.917 161.891 148.726 160.162C150.536 158.434 151.135 157.157 152.742 156.705C154.348 156.253 157.562 153.967 158.569 152.542C159.84 150.639 162.041 149.332 164.075 148.723C165.951 147.739 168.97 145.205 170.002 145.282C171.825 145.654 173.826 147.923 174.997 148.773C182.853 155.02 184.815 150.027 187.632 152.82C189.053 155.707 190.129 155.001 193.201 158.409C194.122 159.509 194.977 160.662 195.763 161.861C199.129 167.218 197.944 165.853 201.668 168.767Z" fill="url(#paint18_linear_3_825)"/>
<path style="mix-blend-mode:multiply" opacity="0.5" d="M165.693 168.393L140.693 168.133C140.693 168.133 144.708 164.384 145.713 164.273C146.717 164.163 146.917 161.891 148.726 160.162C150.536 158.434 151.135 157.157 152.742 156.705C154.348 156.253 157.562 153.967 158.569 152.542C159.829 150.642 162.052 149.332 164.075 148.723L160.745 152.82C160.705 153.668 160.798 154.516 161.022 155.335C161.38 156.473 157.47 158.486 158.003 160.322C158.536 162.159 157.293 164.521 157.293 164.521C158.078 165.553 158.325 166.145 159.89 166.782C161.974 167.433 164.133 167.775 165.693 168.393Z" fill="url(#paint19_linear_3_825)"/>
<path style="mix-blend-mode:multiply" opacity="0.5" d="M201.668 168.767L186.683 168.613C187.215 168.365 194.175 167.43 194.877 165.93C195.058 163.824 192.38 164.083 195.74 161.869C199.134 167.226 197.944 165.853 201.668 168.767Z" fill="url(#paint20_linear_3_825)"/>
<path style="mix-blend-mode:multiply" opacity="0.5" d="M187.612 152.823H184.199L182.368 153.413C182.368 153.413 180.289 153.063 179.756 152.823C179.223 152.583 175.13 148.913 174.98 148.778C182.873 155.034 184.782 150.022 187.612 152.823Z" fill="url(#paint21_linear_3_825)"/>
<path style="mix-blend-mode:multiply" opacity="0.3" d="M111.461 82.2222C96.0789 101.348 107.853 109.43 77.6335 107.781C69.8163 109.066 86.4441 142.54 79.4927 142.736C76.5263 142.311 63.9833 115.275 61.1972 112.622C59.4822 110.99 58.0975 116.24 57.29 120.516C56.2743 117.629 54.9451 113.673 55.2226 111.489C55.6472 108.376 64.7464 96.8764 65.2348 96.2257L70.3297 88.2576C70.3869 88.1657 70.4685 88.0913 70.5656 88.0425C70.9124 87.9736 82.3621 81.7673 82.7423 81.8803C89.9378 82.4621 102.567 83.893 111.461 82.2222Z" fill="url(#paint22_linear_3_825)"/>
<path style="mix-blend-mode:multiply" opacity="0.3" d="M174.351 136.575C174.178 140.088 173.751 148.748 173.574 152.354C167.618 151.897 159.485 151.251 159.302 151.097C159.024 150.86 157.035 134.529 157.492 130.195C157.95 125.861 142.535 121.777 141.153 117.14C139.771 112.502 131.141 99.0807 129.645 97.1121C128.471 95.5708 130.658 86.9355 131.66 83.2712C133.602 84.8979 138.597 89.1329 140.293 90.9444C142.285 93.0618 156.721 102.108 158.561 103.258C159.604 105.259 163.045 117.854 163.781 120.404C164.935 123.707 173.507 134.772 174.351 136.575Z" fill="url(#paint23_linear_3_825)"/>
<path d="M86.755 57.4285C90.9591 60.4338 87.8928 66.2238 87.1824 70.1638C86.0224 70.1362 82.5453 69.4993 81.0163 68.1897C80.9164 66.1604 82.2484 61.3216 82.6813 60.2491C82.9727 58.5286 84.9152 56.4029 86.755 57.4285Z" fill="url(#paint24_linear_3_825)"/>
<path d="M86.1638 75.736C83.3083 74.3739 84.5876 74.6855 83.855 71.989C82.4092 66.7973 79.3373 62.1846 79.834 56.6427C79.6148 56.072 80.1115 55.4792 79.92 55.096C79.4205 54.9471 78.9876 56.1713 78.9266 56.3836C78.8822 55.9921 78.699 55.6088 78.1496 55.7301C77.8554 55.2587 77.5363 55.4268 77.2199 55.6943C76.5095 55.6088 76.5012 55.1952 75.8574 55.868C75.2025 55.4682 75.0388 56.6951 75.0249 57.1335C74.9861 58.1537 75.8768 58.9339 76.1349 59.9237C76.6261 63.8692 77.6445 72.171 80.0366 76.5328C81.0661 78.7909 84.0409 77.779 85.7253 76.8609L86.1638 75.736Z" fill="url(#paint25_linear_3_825)"/>
<path d="M74.1787 58.5865C74.3258 59.1573 74.6754 59.921 75.408 59.6535L113.498 46.4496L112.76 44.39L74.6671 57.5802C74.5684 57.6142 74.4774 57.6673 74.3994 57.7364C74.3214 57.8054 74.2579 57.8891 74.2126 57.9826C74.1672 58.0761 74.1408 58.1776 74.135 58.2812C74.1292 58.3848 74.144 58.4886 74.1787 58.5865Z" fill="#4E4E4E"/>
<path d="M112.773 67.0896C120.543 56.0224 111.913 31.9966 98.6653 28.6109C108.53 35.0571 115.954 55.8294 112.773 67.0896Z" fill="#4E4E4E"/>
<path d="M108.203 41.7983C108.53 41.9885 111.372 52.3967 112.229 51.5751L115.307 50.5081C116.506 50.6377 112.077 40.7009 112.229 40.4032C112.184 40.2783 112.091 40.1763 111.971 40.1195C111.85 40.0627 111.712 40.0556 111.586 40.0999L108.503 41.1641C108.378 41.209 108.277 41.3008 108.221 41.4197C108.165 41.5386 108.158 41.6747 108.203 41.7983Z" fill="#B4B4B4"/>
<path d="M110.537 71.9035C110.279 80.4507 103.172 86.0973 97.4803 91.4655C97.4275 91.5344 96.7477 89.8112 96.0511 89.3232C96.0373 89.2432 96.0206 89.166 96.0095 89.0805C96.7393 87.7764 97.594 86.5081 98.4349 85.2398C99.8834 82.6398 102.875 75.5016 104.149 74.2885V74.0431H104.182C104.251 73.1929 104.267 72.3393 104.229 71.4872C107.207 72.5625 109.335 72.2923 110.537 71.9035Z" fill="url(#paint26_linear_3_825)"/>
<path d="M93.9395 47.3732C93.9395 47.3732 93.8229 54.7431 90.6511 54.7045C90.6511 54.7045 93.6564 59.4137 98.3018 54.6769C98.3018 54.6769 98.324 50.8169 99.6144 48.0598L93.9395 47.3732Z" fill="url(#paint27_linear_3_825)"/>
<path d="M91.7249 89.3314L88.4754 82.8576L80.4889 85.0303C80.4889 85.0303 58.9078 77.4371 54.0931 84.8097C52.7889 86.8086 51.5013 90.1999 50.3164 94.0792C47.1362 104.501 44.7109 118.458 44.7109 118.461C44.7109 118.463 43.8478 120.642 44.0615 120.964L43.8118 120.948C43.8118 120.948 39.8879 121.775 37.3127 119.613C36.039 122.519 45.6821 127.311 48.718 127.019C48.718 127.019 49.5033 123.942 48.5265 122.552L48.8623 120.526C48.8623 120.526 51.5068 112.301 56.3159 105.951C61.125 99.6018 60.9835 93.627 60.9835 93.627C65.3208 91.4654 81.9985 102.373 86.7466 100.68C88.9666 99.8527 89.7991 96.9577 90.4623 94.9339C90.7925 93.9276 92.2411 90.3598 91.7249 89.3314Z" fill="url(#paint28_linear_3_825)"/>
<path d="M97.3721 91.2945C97.0946 90.2716 96.3648 86.4998 95.363 85.907L89.0776 82.1794L83.5415 88.2451C83.5415 88.2451 61.2111 93.3127 61.1917 102.078C61.1917 104.457 61.9603 107.995 63.087 111.89C66.1201 122.368 71.7172 135.403 71.7172 135.403C71.7172 135.403 72.1834 137.697 72.5497 137.854C72.411 137.926 72.3305 137.973 72.3305 137.973C72.3305 137.973 69.4861 140.763 66.1256 140.303C66.6445 143.424 77.3838 142.34 79.7842 140.479C79.7842 140.479 78.7602 137.471 77.1784 136.818L76.3459 134.932C76.3459 134.932 74.0677 126.6 74.6421 118.701C75.2165 110.801 71.8227 105.841 71.8227 105.841C72.9993 103.335 83.4777 101.929 87.6208 102.227C94.5305 103.015 99.4006 98.0881 97.3721 91.2945Z" fill="url(#paint29_linear_3_825)"/>
<path d="M104.232 67.6327C103.191 73.4034 96.1456 89.2211 96.1206 88.8269C90.4069 89.6209 84.1881 88.6477 79.7981 85.3722C81.6129 80.5141 82.4205 69.3091 82.648 64.4317C85.6145 65.0824 86.4303 58.5452 87.4599 55.8459C88.6115 55.4324 89.5633 55.0794 89.6327 55.0546C89.6327 55.0546 85.4452 61.8289 87.3433 63.5135C89.2414 65.1982 96.6562 66.0253 98.3018 61.2472C99.2703 58.4294 99.8364 56.5407 100.139 55.4572C100.48 55.6667 100.827 55.9066 101.171 56.1602C100.469 58.4432 98.7735 64.28 99.3868 65.5014C99.8253 66.3865 102.251 67.1447 104.232 67.6327Z" fill="url(#paint30_linear_3_825)"/>
<path d="M89.691 39.8959C90.9148 43.9406 86.7328 48.443 92.0386 52.6587C93.7813 52.4739 100.255 52.4767 101.088 46.6426C101.426 45.6776 102.947 45.3329 102.475 43.6538C102.004 41.9747 101.143 42.9425 101.143 42.9425C101.143 42.9425 101.113 41.677 101.002 40.61C100.891 39.5429 89.691 39.8959 89.691 39.8959Z" fill="url(#paint31_linear_3_825)"/>
<path d="M89.7327 39.645C90.2682 40.6375 91.3977 42.2146 95.6934 42.8736C93.8619 40.2157 99.7171 43.2568 99.3952 45.1482C99.7005 47.6958 101.18 44.4396 101.149 42.9425C101.149 42.9425 102.015 41.9747 102.481 43.6538C102.947 45.3329 101.427 45.6776 101.094 46.6426C100.6 47.9936 100.447 49.0385 100.131 49.4604C100.131 49.4604 104.177 46.6591 103.461 40.6954C102.745 34.7317 92.763 35.8925 89.7327 39.645Z" fill="url(#paint32_linear_3_825)"/>
<path d="M90.8788 41.0456C90.26 42.0602 88.7476 41.4013 89.2138 40.0034C89.4608 39.383 90.8788 41.0456 90.8788 41.0456Z" fill="url(#paint33_linear_3_825)"/>
<path d="M88.4339 39.4271C83.3945 41.1614 98.0742 42.1843 100.785 41.2138L98.4072 36.8244L88.4339 39.4271Z" fill="url(#paint34_linear_3_825)"/>
<path d="M98.9733 32.4102C98.9733 32.4102 106.094 34.4174 104.49 41.6411C104.465 41.7503 104.415 41.8526 104.346 41.9408C104.276 42.029 104.188 42.101 104.088 42.1517C103.987 42.2025 103.877 42.2307 103.764 42.2344C103.651 42.2381 103.539 42.2172 103.435 42.1733C98.6805 40.2339 93.5724 39.2951 88.4338 39.4161C88.4338 39.4161 89.8463 30.0529 98.9733 32.4102Z" fill="url(#paint35_linear_3_825)"/>
<path d="M90.6733 39.4271C90.776 39.7359 92.5243 40.6155 95.574 39.9345C95.574 39.9345 96.6174 34.3761 98.9734 32.4102C96.3982 30.4416 91.775 34.241 90.6733 39.4271Z" fill="url(#paint36_linear_3_825)"/>
<path style="mix-blend-mode:multiply" opacity="0.5" d="M94.969 40.042L95.5739 39.9317C95.5739 39.9317 96.6146 34.3926 98.9622 32.413C98.7513 32.4957 95.3658 33.9129 94.969 40.042Z" fill="url(#paint37_linear_3_825)"/>
<path d="M100.139 55.4627C99.8364 56.5407 99.2703 58.4294 98.3018 61.2527C96.6562 66.0308 89.2442 65.2037 87.3433 63.5191C85.4424 61.8344 89.6327 55.0546 89.6327 55.0546C90.5976 54.7687 91.5115 54.3342 92.3411 53.767C91.9748 54.6879 91.7694 56.1216 93.7619 56.1134C96.7089 56.3312 98.3018 54.6769 98.3018 54.6769C98.9574 54.8248 99.5801 55.0912 100.139 55.4627Z" fill="url(#paint38_linear_3_825)"/>
<path d="M104.232 67.6327C102.25 67.1447 99.8251 66.3865 99.3867 65.507C98.7734 64.2855 100.469 58.4487 101.171 56.1658C105.517 58.9008 105.569 63.1138 104.232 67.6327Z" fill="url(#paint39_linear_3_825)"/>
<path d="M87.4598 55.8459C86.4275 58.5507 85.6172 65.0768 82.6479 64.4317C82.7478 61.6745 83.4194 58.8485 85.5423 56.9019C85.731 56.7475 87.4126 56.0362 87.4598 55.8459Z" fill="url(#paint40_linear_3_825)"/>
<path style="mix-blend-mode:screen" opacity="0.8" d="M95.6766 71.5947L86.4608 69.6013C86.4608 69.6013 85.0206 71.0268 84.5405 71.3797C84.5405 71.3797 83.955 81.0876 83.6775 82.1325C83.6775 82.1325 86.4886 84.2914 93.7979 84.2555C93.7979 84.2555 96.9115 76.0916 97.1473 74.509C96.3873 73.6969 95.877 72.6857 95.6766 71.5947Z" fill="url(#paint41_linear_3_825)"/>
<path d="M104.149 74.2885C101.718 70.7979 99.3867 65.507 99.3867 65.507L102.675 57.3927C106.055 60.0368 109.232 69.0802 110.542 71.9035C109.058 74.01 106.632 74.7847 104.149 74.2885Z" fill="url(#paint42_linear_3_825)"/>
<path d="M97.83 90.8947C97.6432 91.2133 97.3826 91.4831 97.0699 91.6816C96.7572 91.8801 96.4013 92.0017 96.0318 92.0362C94.8108 92.1106 95.8292 92.7751 96.3093 92.742C96.7894 92.7089 98.0964 92.3422 98.2962 91.5978C98.496 90.8534 97.83 90.8947 97.83 90.8947Z" fill="url(#paint43_linear_3_825)"/>
<path d="M97.5053 89.9297C97.2981 90.3191 96.9999 90.6534 96.6359 90.9048C96.2719 91.1562 95.8525 91.3172 95.413 91.3745C93.9311 91.5399 95.227 92.243 95.7959 92.174C96.3648 92.1051 97.9354 91.5895 98.1158 90.7127C98.2962 89.836 97.5053 89.9297 97.5053 89.9297Z" fill="url(#paint44_linear_3_825)"/>
<path d="M97.1806 88.8572C96.9176 89.3186 96.5479 89.7112 96.1021 90.0026C95.6562 90.2941 95.147 90.4761 94.6165 90.5335C92.8017 90.7238 94.3917 91.5482 95.091 91.471C95.7903 91.3938 97.7162 90.7955 97.9326 89.7726C98.1491 88.7497 97.1806 88.8572 97.1806 88.8572Z" fill="url(#paint45_linear_3_825)"/>
<path d="M94.8636 89.7588C95.2316 89.7172 95.5863 89.5972 95.9034 89.4068C96.2204 89.2165 96.4924 88.9603 96.7006 88.6559L96.4786 88.0163C96.7401 88.0897 96.991 88.1963 97.2251 88.3333C98.6542 89.2046 95.968 90.6025 95.2548 90.5528C94.6776 90.6273 93.3817 89.927 94.8636 89.7588Z" fill="url(#paint46_linear_3_825)"/>
<path d="M156.041 78.4187C151.565 81.0131 154.051 87.0651 154.376 91.0574C155.533 91.1374 159.057 90.8313 160.706 89.6788C161 87.6689 160.151 82.7253 159.818 81.6169C159.699 79.8689 157.978 77.5722 156.041 78.4187Z" fill="url(#paint47_linear_3_825)"/>
<path d="M154.845 96.6985C157.82 95.6122 156.51 95.8024 157.506 93.1887C159.449 88.1541 162.954 83.853 162.998 78.3001C163.276 77.7487 162.834 77.1145 163.062 76.7506C163.573 76.6486 163.894 77.9113 163.928 78.1292C164.011 77.7432 164.23 77.3792 164.76 77.5529C165.099 77.1118 165.401 77.3075 165.69 77.6025C166.403 77.586 166.453 77.1724 167.03 77.9031C167.718 77.5667 167.766 78.7909 167.743 79.243C167.685 80.2632 166.722 80.9552 166.356 81.9147C165.482 85.7995 163.664 93.9634 160.859 98.0798C159.618 100.23 156.754 98.9428 155.164 97.8731L154.845 96.6985Z" fill="url(#paint48_linear_3_825)"/>
<path d="M168.443 80.7567C168.24 81.3081 167.818 82.036 167.113 81.7024L130.483 64.9776L131.421 62.9814L168.051 79.7062C168.147 79.7496 168.232 79.8112 168.303 79.8875C168.375 79.9638 168.43 80.0533 168.466 80.1509C168.503 80.2484 168.519 80.3522 168.515 80.4561C168.511 80.5601 168.486 80.6622 168.443 80.7567Z" fill="#4E4E4E"/>
<path d="M129.201 85.59C122.544 73.828 133.478 50.7314 146.975 48.6139C136.53 54.1007 127.128 74.0706 129.201 85.59Z" fill="#4E4E4E"/>
<path d="M136.203 60.8446L131.915 69.9432C131.858 70.0627 131.756 70.155 131.631 70.1999C131.505 70.2448 131.367 70.2388 131.247 70.1831L128.288 68.8321C128.228 68.8056 128.174 68.7675 128.129 68.72C128.084 68.6724 128.05 68.6164 128.027 68.5552C128.004 68.494 127.994 68.429 127.997 68.3638C128 68.2986 128.016 68.2347 128.044 68.1759C128.394 68.0105 132.207 57.9496 133 58.8209L135.958 60.1719C136.02 60.1985 136.076 60.2374 136.122 60.2862C136.168 60.3351 136.204 60.3928 136.227 60.4558C136.25 60.5188 136.26 60.5858 136.255 60.6527C136.251 60.7196 136.233 60.7849 136.203 60.8446Z" fill="#B4B4B4"/>
<path d="M130.963 90.5942C130.389 99.122 136.916 105.414 142.063 111.292C142.108 111.367 142.951 109.715 143.692 109.296C143.715 109.216 143.74 109.141 143.759 109.059C143.157 107.68 142.432 106.346 141.717 105.006C140.526 102.29 138.234 94.8953 137.085 93.5664C137.085 93.4864 137.099 93.4037 137.11 93.3238H137.077C137.093 92.4713 137.16 91.6206 137.279 90.7762C134.213 91.562 132.134 91.0932 130.963 90.5942Z" fill="url(#paint49_linear_3_825)"/>
<path d="M149.85 67.7375C149.85 67.7375 149.251 75.0825 152.411 75.3417C152.411 75.3417 148.965 79.7531 144.799 74.5945C144.799 74.5945 145.152 70.7566 144.136 67.8726L149.85 67.7375Z" fill="url(#paint50_linear_3_825)"/>
<path d="M147.999 109.707L151.862 103.567L159.602 106.484C159.602 106.484 181.821 100.953 185.897 108.744C187.007 110.856 187.954 114.353 188.758 118.326C190.912 129.001 191.975 143.121 191.975 143.126C191.975 143.132 192.624 145.376 192.38 145.676H192.627C192.627 145.676 196.454 146.881 199.229 144.96C200.211 147.973 190.152 151.833 187.157 151.257C187.157 151.257 186.674 148.119 187.782 146.829L187.643 144.783C187.643 144.783 185.806 136.349 181.635 129.575C177.464 122.8 178.183 116.867 178.183 116.867C174.109 114.306 156.38 123.603 151.854 121.466C149.717 120.429 149.168 117.474 148.712 115.4C148.482 114.375 147.386 110.685 147.999 109.707Z" fill="url(#paint51_linear_3_825)"/>
<path d="M142.186 111.132C142.56 110.142 143.656 106.445 144.711 105.957L151.321 102.841C151.876 103.578 155.603 108.551 156.244 109.409C156.244 109.409 177.983 116.553 177.151 125.279C176.923 127.647 175.81 131.097 174.312 134.868C170.28 145.001 163.448 157.458 163.448 157.458C163.448 157.458 162.759 159.699 162.39 159.821L162.596 159.961C162.596 159.961 165.157 163.008 168.545 162.862C167.732 165.919 157.146 163.835 154.934 161.759C154.934 161.759 156.244 158.861 157.884 158.362L158.888 156.562C158.888 156.562 161.96 148.483 162.157 140.57C162.354 132.657 166.209 128.033 166.209 128.033C165.279 125.428 154.981 123.043 150.833 122.952C143.878 123.065 139.511 117.705 142.186 111.132Z" fill="url(#paint52_linear_3_825)"/>
<path d="M137.654 86.9327C138.129 92.7751 143.609 109.183 143.673 108.794C149.284 110.12 155.561 109.734 160.256 106.892C158.919 101.882 159.202 90.6549 159.449 85.7775C156.432 86.1469 156.252 79.5601 155.492 76.7782C154.382 76.2571 153.472 75.8159 153.402 75.7856C153.402 75.7856 156.918 82.9211 154.862 84.421C152.806 85.9208 145.349 86.0477 144.175 81.1344C143.484 78.2394 143.104 76.3067 142.907 75.2038C142.546 75.3803 142.18 75.5871 141.797 75.8076C142.274 78.1457 143.396 84.1177 142.668 85.2757C142.161 86.1083 139.671 86.6349 137.654 86.9327Z" fill="url(#paint53_linear_3_825)"/>
<path d="M153.91 60.6847C152.8 64.7598 157.098 69.1629 151.906 73.5054C150.161 73.3676 143.69 73.5385 142.699 67.7154C142.335 66.7615 140.806 66.4554 141.225 64.7653C141.644 63.0752 142.538 64.0181 142.538 64.0181C142.538 64.0181 142.538 62.7526 142.616 61.6828C142.693 60.613 153.91 60.6847 153.91 60.6847Z" fill="url(#paint54_linear_3_825)"/>
<path d="M153.863 60.4366C153.352 61.4402 152.267 63.0503 147.988 63.8196C149.75 61.1148 143.978 64.3104 144.353 66.1907C144.114 68.7438 142.549 65.529 142.538 64.0319C142.538 64.0319 141.647 63.0862 141.225 64.7791C140.803 66.472 142.335 66.7752 142.699 67.7292C143.229 69.0664 143.409 70.1059 143.739 70.5222C143.739 70.5222 139.616 67.8257 140.179 61.8455C140.742 55.8652 150.732 56.7641 153.863 60.4366Z" fill="url(#paint55_linear_3_825)"/>
<path d="M152.755 61.8675C153.399 62.8656 154.895 62.1653 154.401 60.7785C154.126 60.1691 152.755 61.8675 152.755 61.8675Z" fill="url(#paint56_linear_3_825)"/>
<path d="M155.153 60.1774C160.237 61.7793 145.59 63.1882 142.854 62.2866L145.113 57.8366L155.153 60.1774Z" fill="url(#paint57_linear_3_825)"/>
<path d="M144.428 53.4472C144.428 53.4472 137.365 55.6529 139.155 62.8215C139.184 62.9298 139.237 63.0305 139.309 63.1167C139.381 63.2028 139.471 63.2723 139.573 63.3203C139.675 63.3683 139.786 63.3937 139.899 63.3947C140.012 63.3957 140.124 63.3723 140.226 63.3261C144.928 61.2642 150.008 60.1931 155.147 60.1802C155.147 60.1802 153.488 50.8583 144.428 53.4472Z" fill="url(#paint58_linear_3_825)"/>
<path d="M152.902 60.2408C152.866 60.5165 151.043 61.487 148.018 60.875C148.018 60.875 146.825 55.3607 144.411 53.4445C146.95 51.4097 151.673 55.0877 152.902 60.2408Z" fill="url(#paint59_linear_3_825)"/>
<path style="mix-blend-mode:multiply" opacity="0.5" d="M148.637 60.9687C148.446 60.9411 148.243 60.9108 148.03 60.875C148.03 60.875 146.839 55.3607 144.439 53.45C144.652 53.5272 148.074 54.8671 148.637 60.9687Z" fill="url(#paint60_linear_3_825)"/>
<path d="M142.913 75.2038C143.11 76.3067 143.49 78.2367 144.181 81.1344C145.355 86.0477 152.814 85.9208 154.867 84.421C156.921 82.9211 153.408 75.7856 153.408 75.7856C152.475 75.4125 151.609 74.894 150.841 74.2499C151.118 75.2011 151.177 76.6486 149.195 76.4556C146.243 76.3977 144.816 74.6 144.816 74.6C144.15 74.6842 143.505 74.8889 142.913 75.2038Z" fill="url(#paint61_linear_3_825)"/>
<path d="M137.654 86.9327C139.671 86.6349 142.161 86.1056 142.682 85.2784C143.409 84.1204 142.288 78.1485 141.811 75.8104C137.221 78.1209 136.758 82.3062 137.654 86.9327Z" fill="url(#paint62_linear_3_825)"/>
<path d="M155.492 76.7782C156.255 79.5684 156.43 86.1387 159.449 85.7775C159.615 83.0369 159.224 80.1474 157.298 78.0078C157.123 77.8397 155.525 76.9739 155.492 76.7782Z" fill="url(#paint63_linear_3_825)"/>
<path style="mix-blend-mode:screen" opacity="0.8" d="M145.785 91.6805L155.153 90.5776C155.153 90.5776 156.446 92.1299 156.893 92.5269C156.893 92.5269 156.532 102.246 156.707 103.316C156.707 103.316 153.699 105.199 146.44 104.476C146.44 104.476 144.131 96.0561 144.05 94.4569C144.884 93.7155 145.486 92.7519 145.785 91.6805Z" fill="url(#paint64_linear_3_825)"/>
<path d="M137.085 93.5664C139.841 90.3212 142.677 85.2757 142.677 85.2757L140.196 76.8884C136.575 79.2017 132.534 87.917 130.958 90.5942C132.223 92.8302 134.571 93.8283 137.085 93.5664Z" fill="url(#paint65_linear_3_825)"/>
<path d="M141.769 110.691C141.923 111.024 142.154 111.316 142.443 111.544C142.733 111.771 143.072 111.926 143.434 111.998C144.644 112.185 143.567 112.751 143.101 112.676C142.635 112.602 141.361 112.108 141.236 111.347C141.112 110.586 141.769 110.691 141.769 110.691Z" fill="url(#paint66_linear_3_825)"/>
<path d="M142.186 109.762C142.355 110.168 142.62 110.528 142.957 110.812C143.295 111.096 143.697 111.296 144.128 111.394C145.585 111.703 144.228 112.279 143.667 112.155C143.107 112.031 141.594 111.372 141.5 110.484C141.406 109.596 142.186 109.762 142.186 109.762Z" fill="url(#paint67_linear_3_825)"/>
<path d="M142.616 108.722C142.831 109.207 143.161 109.633 143.576 109.965C143.991 110.298 144.48 110.527 145.002 110.633C146.792 110.994 145.127 111.664 144.447 111.521C143.767 111.378 141.9 110.606 141.783 109.566C141.667 108.527 142.616 108.722 142.616 108.722Z" fill="url(#paint68_linear_3_825)"/>
<path d="M144.833 109.839C144.47 109.763 144.128 109.609 143.831 109.389C143.534 109.168 143.289 108.886 143.112 108.563L143.39 107.945C143.122 107.995 142.862 108.078 142.616 108.193C141.112 108.926 143.645 110.57 144.364 110.589C144.936 110.721 146.29 110.145 144.833 109.839Z" fill="url(#paint69_linear_3_825)"/>
<g filter="url(#filter0_i_3_825)">
<path d="M96.5132 105.141C96.5132 104.581 96.7072 104.107 97.0952 103.719C97.4872 103.331 97.9752 103.137 98.5592 103.137C99.0632 103.137 99.5072 103.293 99.8912 103.605L99.4772 104.079C99.2292 103.871 98.9252 103.767 98.5652 103.767C98.1892 103.767 97.8732 103.901 97.6172 104.169C97.3652 104.437 97.2392 104.761 97.2392 105.141C97.2392 105.521 97.3652 105.845 97.6172 106.113C97.8732 106.381 98.1892 106.515 98.5652 106.515C98.9772 106.515 99.3112 106.357 99.5672 106.041V105.369H98.8532V104.787H100.239V106.305C100.063 106.565 99.8272 106.771 99.5312 106.923C99.2352 107.071 98.9112 107.145 98.5592 107.145C97.9752 107.145 97.4872 106.953 97.0952 106.569C96.7072 106.181 96.5132 105.705 96.5132 105.141ZM101.041 107.085V103.197H102.673C103.225 103.197 103.649 103.337 103.945 103.617C104.241 103.893 104.389 104.247 104.389 104.679C104.389 104.947 104.319 105.197 104.179 105.429C104.039 105.661 103.843 105.835 103.591 105.951L104.443 107.085H103.591L102.913 106.149C102.797 106.157 102.591 106.161 102.295 106.161H101.737V107.085H101.041ZM101.737 105.561H102.715C103.003 105.561 103.233 105.477 103.405 105.309C103.577 105.141 103.663 104.931 103.663 104.679C103.663 104.427 103.577 104.217 103.405 104.049C103.233 103.881 103.005 103.797 102.721 103.797H101.737V105.561ZM104.705 107.085L106.457 103.197H107.117L108.869 107.085H108.161L107.855 106.413H105.719L105.413 107.085H104.705ZM105.959 105.861H107.615L107.159 104.877C107.107 104.765 107.049 104.631 106.985 104.475C106.925 104.319 106.877 104.193 106.841 104.097L106.787 103.947C106.659 104.307 106.535 104.617 106.415 104.877L105.959 105.861ZM109.338 107.085V103.197H109.944L110.484 103.953L111.366 105.201L112.242 103.959L112.782 103.197H113.388V107.085H112.692V104.385C112.612 104.529 112.488 104.723 112.32 104.967L111.366 106.335L110.4 104.955L110.034 104.385V107.085H109.338ZM114.074 106.587L114.344 106.059C114.72 106.363 115.15 106.515 115.634 106.515C115.858 106.515 116.054 106.465 116.222 106.365C116.39 106.265 116.474 106.131 116.474 105.963C116.474 105.851 116.43 105.757 116.342 105.681C116.254 105.601 116.164 105.545 116.072 105.513C115.98 105.481 115.848 105.445 115.676 105.405C115.504 105.365 115.36 105.329 115.244 105.297C115.128 105.261 115 105.211 114.86 105.147C114.72 105.079 114.608 105.007 114.524 104.931C114.44 104.855 114.368 104.757 114.308 104.637C114.252 104.517 114.224 104.383 114.224 104.235C114.224 103.891 114.362 103.623 114.638 103.431C114.914 103.235 115.246 103.137 115.634 103.137C116.142 103.137 116.602 103.277 117.014 103.557L116.744 104.091C116.404 103.875 116.034 103.767 115.634 103.767C115.534 103.767 115.434 103.781 115.334 103.809C115.234 103.833 115.142 103.883 115.058 103.959C114.974 104.031 114.932 104.121 114.932 104.229C114.932 104.369 114.996 104.475 115.124 104.547C115.256 104.619 115.464 104.689 115.748 104.757C115.96 104.805 116.142 104.859 116.294 104.919C116.446 104.975 116.596 105.049 116.744 105.141C116.892 105.229 117.004 105.343 117.08 105.483C117.16 105.623 117.2 105.783 117.2 105.963C117.2 106.343 117.044 106.635 116.732 106.839C116.42 107.043 116.052 107.145 115.628 107.145C114.992 107.145 114.474 106.959 114.074 106.587Z" fill="#8C8473"/>
</g>
<defs>
<filter id="filter0_i_3_825" x="96.5132" y="103.137" width="20.6865" height="8.008" filterUnits="userSpaceOnUse" color-interpolation-filters="sRGB">
<feFlood flood-opacity="0" result="BackgroundImageFix"/>
<feBlend mode="normal" in="SourceGraphic" in2="BackgroundImageFix" result="shape"/>
<feColorMatrix in="SourceAlpha" type="matrix" values="0 0 0 0 0 0 0 0 0 0 0 0 0 0 0 0 0 0 127 0" result="hardAlpha"/>
<feOffset dy="4"/>
<feGaussianBlur stdDeviation="2"/>
<feComposite in2="hardAlpha" operator="arithmetic" k2="-1" k3="1"/>
<feColorMatrix type="matrix" values="0 0 0 0 0 0 0 0 0 0 0 0 0 0 0 0 0 0 0.25 0"/>
<feBlend mode="normal" in2="shape" result="effect1_innerShadow_3_825"/>
</filter>
<linearGradient id="paint0_linear_3_825" x1="128.114" y1="97.6056" x2="106.21" y2="181.591" gradientUnits="userSpaceOnUse">
<stop stop-color="#9E9887"/>
<stop offset="1" stop-color="#A1907D"/>
</linearGradient>
<linearGradient id="paint1_linear_3_825" x1="99.1286" y1="169.989" x2="117.895" y2="103.53" gradientUnits="userSpaceOnUse">
<stop stop-color="#CF8229"/>
<stop offset="1" stop-color="#F9A01F"/>
</linearGradient>
<linearGradient id="paint2_linear_3_825" x1="85.5062" y1="101.796" x2="87.3377" y2="101.796" gradientUnits="userSpaceOnUse">
<stop stop-color="#9E9887"/>
<stop offset="1" stop-color="#A1907D"/>
</linearGradient>
<linearGradient id="paint3_linear_3_825" x1="85.5062" y1="109.991" x2="87.3377" y2="109.991" gradientUnits="userSpaceOnUse">
<stop stop-color="#9E9887"/>
<stop offset="1" stop-color="#A1907D"/>
</linearGradient>
<linearGradient id="paint4_linear_3_825" x1="121.212" y1="101.796" x2="123.044" y2="101.796" gradientUnits="userSpaceOnUse">
<stop stop-color="#9E9887"/>
<stop offset="1" stop-color="#A1907D"/>
</linearGradient>
<linearGradient id="paint5_linear_3_825" x1="121.212" y1="109.991" x2="123.044" y2="109.991" gradientUnits="userSpaceOnUse">
<stop stop-color="#9E9887"/>
<stop offset="1" stop-color="#A1907D"/>
</linearGradient>
<linearGradient id="paint6_linear_3_825" x1="169.097" y1="148.199" x2="111.688" y2="167.807" gradientUnits="userSpaceOnUse">
<stop stop-color="#FFCF30"/>
<stop offset="1" stop-color="#F9A01F"/>
</linearGradient>
<linearGradient id="paint7_linear_3_825" x1="136.688" y1="136.589" x2="106.194" y2="175.055" gradientUnits="userSpaceOnUse">
<stop stop-color="#FFCF30"/>
<stop offset="1" stop-color="#F9A01F"/>
</linearGradient>
<linearGradient id="paint8_linear_3_825" x1="177.153" y1="163.865" x2="145.94" y2="170.422" gradientUnits="userSpaceOnUse">
<stop stop-color="#FFCF30"/>
<stop offset="1" stop-color="#F9A01F"/>
</linearGradient>
<linearGradient id="paint9_linear_3_825" x1="157.678" y1="141.491" x2="133.077" y2="146.658" gradientUnits="userSpaceOnUse">
<stop stop-color="#FFCF30"/>
<stop offset="1" stop-color="#F9A01F"/>
</linearGradient>
<linearGradient id="paint10_linear_3_825" x1="103.53" y1="148.199" x2="46.12" y2="167.807" gradientUnits="userSpaceOnUse">
<stop stop-color="#FFCF30"/>
<stop offset="1" stop-color="#F9A01F"/>
</linearGradient>
<linearGradient id="paint11_linear_3_825" x1="71.1206" y1="136.589" x2="40.6268" y2="175.055" gradientUnits="userSpaceOnUse">
<stop stop-color="#FFCF30"/>
<stop offset="1" stop-color="#F9A01F"/>
</linearGradient>
<linearGradient id="paint12_linear_3_825" x1="111.586" y1="163.865" x2="80.3726" y2="170.422" gradientUnits="userSpaceOnUse">
<stop stop-color="#FFCF30"/>
<stop offset="1" stop-color="#F9A01F"/>
</linearGradient>
<linearGradient id="paint13_linear_3_825" x1="92.1107" y1="141.491" x2="67.5098" y2="146.658" gradientUnits="userSpaceOnUse">
<stop stop-color="#FFCF30"/>
<stop offset="1" stop-color="#F9A01F"/>
</linearGradient>
<linearGradient id="paint14_linear_3_825" x1="72.5554" y1="154.654" x2="33.1616" y2="168.109" gradientUnits="userSpaceOnUse">
<stop stop-color="#FFCF30"/>
<stop offset="1" stop-color="#F9A01F"/>
</linearGradient>
<linearGradient id="paint15_linear_3_825" x1="50.3163" y1="146.688" x2="29.3924" y2="173.082" gradientUnits="userSpaceOnUse">
<stop stop-color="#FFCF30"/>
<stop offset="1" stop-color="#F9A01F"/>
</linearGradient>
<linearGradient id="paint16_linear_3_825" x1="93.7425" y1="140.325" x2="75.3449" y2="167.073" gradientUnits="userSpaceOnUse">
<stop stop-color="#FFCF30"/>
<stop offset="1" stop-color="#F9A01F"/>
</linearGradient>
<linearGradient id="paint17_linear_3_825" x1="76.407" y1="128.833" x2="58.1855" y2="155.326" gradientUnits="userSpaceOnUse">
<stop stop-color="#FFCF30"/>
<stop offset="1" stop-color="#F9A01F"/>
</linearGradient>
<linearGradient id="paint18_linear_3_825" x1="192.752" y1="154.654" x2="153.361" y2="168.109" gradientUnits="userSpaceOnUse">
<stop stop-color="#FFCF30"/>
<stop offset="1" stop-color="#F9A01F"/>
</linearGradient>
<linearGradient id="paint19_linear_3_825" x1="170.513" y1="146.688" x2="149.589" y2="173.082" gradientUnits="userSpaceOnUse">
<stop stop-color="#FFCF30"/>
<stop offset="1" stop-color="#F9A01F"/>
</linearGradient>
<linearGradient id="paint20_linear_3_825" x1="213.939" y1="140.325" x2="195.541" y2="167.073" gradientUnits="userSpaceOnUse">
<stop stop-color="#FFCF30"/>
<stop offset="1" stop-color="#F9A01F"/>
</linearGradient>
<linearGradient id="paint21_linear_3_825" x1="196.606" y1="128.833" x2="178.382" y2="155.326" gradientUnits="userSpaceOnUse">
<stop stop-color="#FFCF30"/>
<stop offset="1" stop-color="#F9A01F"/>
</linearGradient>
<linearGradient id="paint22_linear_3_825" x1="55.181" y1="112.308" x2="111.461" y2="112.308" gradientUnits="userSpaceOnUse">
<stop stop-color="#9E9887"/>
<stop offset="1" stop-color="#A1907D"/>
</linearGradient>
<linearGradient id="paint23_linear_3_825" x1="129.307" y1="117.813" x2="174.351" y2="117.813" gradientUnits="userSpaceOnUse">
<stop stop-color="#9E9887"/>
<stop offset="1" stop-color="#A1907D"/>
</linearGradient>
<linearGradient id="paint24_linear_3_825" x1="87.0179" y1="55.909" x2="84.2256" y2="68.3544" gradientUnits="userSpaceOnUse">
<stop stop-color="#E6C41F"/>
<stop offset="1" stop-color="#E78025"/>
</linearGradient>
<linearGradient id="paint25_linear_3_825" x1="84.0871" y1="81.9412" x2="78.1879" y2="56.531" gradientUnits="userSpaceOnUse">
<stop stop-color="#EF877E"/>
<stop offset="1" stop-color="#FABEB2"/>
</linearGradient>
<linearGradient id="paint26_linear_3_825" x1="115.341" y1="64.0167" x2="100.385" y2="87.4671" gradientUnits="userSpaceOnUse">
<stop stop-color="#EF877E"/>
<stop offset="1" stop-color="#FABEB2"/>
</linearGradient>
<linearGradient id="paint27_linear_3_825" x1="96.7658" y1="46.6352" x2="93.7229" y2="55.6844" gradientUnits="userSpaceOnUse">
<stop stop-color="#EF877E"/>
<stop offset="1" stop-color="#FABEB2"/>
</linearGradient>
<linearGradient id="paint28_linear_3_825" x1="80.2977" y1="47.6654" x2="57.465" y2="132.141" gradientUnits="userSpaceOnUse">
<stop stop-color="#2F6FB7"/>
<stop offset="1" stop-color="#333333"/>
</linearGradient>
<linearGradient id="paint29_linear_3_825" x1="92.5168" y1="50.9687" x2="69.6846" y2="135.439" gradientUnits="userSpaceOnUse">
<stop stop-color="#2F6FB7"/>
<stop offset="1" stop-color="#333333"/>
</linearGradient>
<linearGradient id="paint30_linear_3_825" x1="97.2404" y1="52.2743" x2="74.4261" y2="136.688" gradientUnits="userSpaceOnUse">
<stop stop-color="#2F6FB7"/>
<stop offset="1" stop-color="#333333"/>
</linearGradient>
<linearGradient id="paint31_linear_3_825" x1="100.055" y1="32.556" x2="96.5177" y2="45.1439" gradientUnits="userSpaceOnUse">
<stop stop-color="#EF877E"/>
<stop offset="1" stop-color="#FABEB2"/>
</linearGradient>
<linearGradient id="paint32_linear_3_825" x1="93.8057" y1="38.6301" x2="90.6872" y2="23.9425" gradientUnits="userSpaceOnUse">
<stop stop-color="#5A1F0D"/>
<stop offset="1" stop-color="#B84726"/>
</linearGradient>
<linearGradient id="paint33_linear_3_825" x1="85.9611" y1="35.0905" x2="86.2969" y2="32.1673" gradientUnits="userSpaceOnUse">
<stop stop-color="#5A1F0D"/>
<stop offset="1" stop-color="#B84726"/>
</linearGradient>
<linearGradient id="paint34_linear_3_825" x1="89.2557" y1="35.1648" x2="102.458" y2="44.2569" gradientUnits="userSpaceOnUse">
<stop stop-color="#E6C41F"/>
<stop offset="1" stop-color="#E78025"/>
</linearGradient>
<linearGradient id="paint35_linear_3_825" x1="95.1526" y1="34.7061" x2="107.181" y2="49.6286" gradientUnits="userSpaceOnUse">
<stop stop-color="#E6C41F"/>
<stop offset="1" stop-color="#E78025"/>
</linearGradient>
<linearGradient id="paint36_linear_3_825" x1="94.1222" y1="34.3008" x2="95.3451" y2="47.187" gradientUnits="userSpaceOnUse">
<stop stop-color="#E6C41F"/>
<stop offset="1" stop-color="#E78025"/>
</linearGradient>
<linearGradient id="paint37_linear_3_825" x1="98.7185" y1="37.141" x2="94.1429" y2="37.5094" gradientUnits="userSpaceOnUse">
<stop stop-color="#E6C41F"/>
<stop offset="1" stop-color="#E78025"/>
</linearGradient>
<linearGradient id="paint38_linear_3_825" x1="94.1526" y1="53.7956" x2="90.1183" y2="84.0048" gradientUnits="userSpaceOnUse">
<stop stop-color="#E6C41F"/>
<stop offset="1" stop-color="#E78025"/>
</linearGradient>
<linearGradient id="paint39_linear_3_825" x1="103.347" y1="55.0055" x2="99.3121" y2="85.223" gradientUnits="userSpaceOnUse">
<stop stop-color="#E6C41F"/>
<stop offset="1" stop-color="#E78025"/>
</linearGradient>
<linearGradient id="paint40_linear_3_825" x1="86.015" y1="52.701" x2="81.9736" y2="82.9705" gradientUnits="userSpaceOnUse">
<stop stop-color="#E6C41F"/>
<stop offset="1" stop-color="#E78025"/>
</linearGradient>
<linearGradient id="paint41_linear_3_825" x1="92.7627" y1="67.2798" x2="92.2921" y2="78.8516" gradientUnits="userSpaceOnUse">
<stop stop-color="#2F6FB7"/>
<stop offset="1" stop-color="#333333"/>
</linearGradient>
<linearGradient id="paint42_linear_3_825" x1="106.753" y1="55.4547" x2="102.712" y2="85.7104" gradientUnits="userSpaceOnUse">
<stop stop-color="#E6C41F"/>
<stop offset="1" stop-color="#E78025"/>
</linearGradient>
<linearGradient id="paint43_linear_3_825" x1="98.1659" y1="90.7974" x2="97.6858" y2="93.9379" gradientUnits="userSpaceOnUse">
<stop stop-color="#EF877E"/>
<stop offset="1" stop-color="#FABEB2"/>
</linearGradient>
<linearGradient id="paint44_linear_3_825" x1="97.0281" y1="90.8056" x2="96.6862" y2="94.4828" gradientUnits="userSpaceOnUse">
<stop stop-color="#EF877E"/>
<stop offset="1" stop-color="#FABEB2"/>
</linearGradient>
<linearGradient id="paint45_linear_3_825" x1="96.4962" y1="89.5729" x2="96.0963" y2="93.8755" gradientUnits="userSpaceOnUse">
<stop stop-color="#EF877E"/>
<stop offset="1" stop-color="#FABEB2"/>
</linearGradient>
<linearGradient id="paint46_linear_3_825" x1="98.011" y1="89.8376" x2="95.4434" y2="92.1684" gradientUnits="userSpaceOnUse">
<stop stop-color="#EF877E"/>
<stop offset="1" stop-color="#FABEB2"/>
</linearGradient>
<linearGradient id="paint47_linear_3_825" x1="155.791" y1="77.048" x2="157.392" y2="89.7018" gradientUnits="userSpaceOnUse">
<stop stop-color="#E6C41F"/>
<stop offset="1" stop-color="#E78025"/>
</linearGradient>
<linearGradient id="paint48_linear_3_825" x1="153.257" y1="102.234" x2="161.508" y2="77.3529" gradientUnits="userSpaceOnUse">
<stop stop-color="#EF877E"/>
<stop offset="1" stop-color="#FABEB2"/>
</linearGradient>
<linearGradient id="paint49_linear_3_825" x1="127.689" y1="80.587" x2="140.181" y2="105.301" gradientUnits="userSpaceOnUse">
<stop stop-color="#EF877E"/>
<stop offset="1" stop-color="#FABEB2"/>
</linearGradient>
<linearGradient id="paint50_linear_3_825" x1="146.808" y1="67.3751" x2="148.989" y2="76.6781" gradientUnits="userSpaceOnUse">
<stop stop-color="#EF877E"/>
<stop offset="1" stop-color="#FABEB2"/>
</linearGradient>
<linearGradient id="paint51_linear_3_825" x1="163.247" y1="69.5034" x2="177.967" y2="155.693" gradientUnits="userSpaceOnUse">
<stop stop-color="#E52E25"/>
<stop offset="1" stop-color="#333333"/>
</linearGradient>
<linearGradient id="paint52_linear_3_825" x1="150.767" y1="71.6247" x2="165.492" y2="157.842" gradientUnits="userSpaceOnUse">
<stop stop-color="#E52E25"/>
<stop offset="1" stop-color="#333333"/>
</linearGradient>
<linearGradient id="paint53_linear_3_825" x1="145.958" y1="72.4753" x2="160.671" y2="158.626" gradientUnits="userSpaceOnUse">
<stop stop-color="#E52E25"/>
<stop offset="1" stop-color="#333333"/>
</linearGradient>
<linearGradient id="paint54_linear_3_825" x1="148.497" y1="60.5465" x2="152.313" y2="73.1282" gradientUnits="userSpaceOnUse">
<stop stop-color="#EF877E"/>
<stop offset="1" stop-color="#FABEB2"/>
</linearGradient>
<linearGradient id="paint55_linear_3_825" x1="146.047" y1="66.2687" x2="148.823" y2="51.5605" gradientUnits="userSpaceOnUse">
<stop stop-color="#5A1F0D"/>
<stop offset="1" stop-color="#B84726"/>
</linearGradient>
<linearGradient id="paint56_linear_3_825" x1="153.787" y1="62.5665" x2="153.387" y2="59.6598" gradientUnits="userSpaceOnUse">
<stop stop-color="#5A1F0D"/>
<stop offset="1" stop-color="#B84726"/>
</linearGradient>
<linearGradient id="paint57_linear_3_825" x1="155.9" y1="55.6293" x2="142.916" y2="65.1551" gradientUnits="userSpaceOnUse">
<stop stop-color="#E6C41F"/>
<stop offset="1" stop-color="#E78025"/>
</linearGradient>
<linearGradient id="paint58_linear_3_825" x1="149.959" y1="55.342" x2="138.33" y2="70.6839" gradientUnits="userSpaceOnUse">
<stop stop-color="#E6C41F"/>
<stop offset="1" stop-color="#E78025"/>
</linearGradient>
<linearGradient id="paint59_linear_3_825" x1="150.43" y1="53.6237" x2="149.609" y2="66.4576" gradientUnits="userSpaceOnUse">
<stop stop-color="#E6C41F"/>
<stop offset="1" stop-color="#E78025"/>
</linearGradient>
<linearGradient id="paint60_linear_3_825" x1="144.249" y1="57.101" x2="148.819" y2="57.334" gradientUnits="userSpaceOnUse">
<stop stop-color="#E6C41F"/>
<stop offset="1" stop-color="#E78025"/>
</linearGradient>
<linearGradient id="paint61_linear_3_825" x1="148.893" y1="74.274" x2="150.052" y2="104.727" gradientUnits="userSpaceOnUse">
<stop stop-color="#E6C41F"/>
<stop offset="1" stop-color="#E78025"/>
</linearGradient>
<linearGradient id="paint62_linear_3_825" x1="139.619" y1="74.6138" x2="140.776" y2="105.089" gradientUnits="userSpaceOnUse">
<stop stop-color="#E6C41F"/>
<stop offset="1" stop-color="#E78025"/>
</linearGradient>
<linearGradient id="paint63_linear_3_825" x1="157.1" y1="73.9516" x2="158.258" y2="104.457" gradientUnits="userSpaceOnUse">
<stop stop-color="#E6C41F"/>
<stop offset="1" stop-color="#E78025"/>
</linearGradient>
<linearGradient id="paint64_linear_3_825" x1="150.88" y1="89.2021" x2="150.315" y2="100.772" gradientUnits="userSpaceOnUse">
<stop stop-color="#E52E25"/>
<stop offset="1" stop-color="#333333"/>
</linearGradient>
<linearGradient id="paint65_linear_3_825" x1="136.18" y1="74.7413" x2="137.338" y2="105.249" gradientUnits="userSpaceOnUse">
<stop stop-color="#E6C41F"/>
<stop offset="1" stop-color="#E78025"/>
</linearGradient>
<linearGradient id="paint66_linear_3_825" x1="142.534" y1="109.908" x2="142.713" y2="113.077" gradientUnits="userSpaceOnUse">
<stop stop-color="#EF877E"/>
<stop offset="1" stop-color="#FABEB2"/>
</linearGradient>
<linearGradient id="paint67_linear_3_825" x1="143.151" y1="108.952" x2="143.126" y2="112.633" gradientUnits="userSpaceOnUse">
<stop stop-color="#EF877E"/>
<stop offset="1" stop-color="#FABEB2"/>
</linearGradient>
<linearGradient id="paint68_linear_3_825" x1="143.802" y1="107.782" x2="143.773" y2="112.086" gradientUnits="userSpaceOnUse">
<stop stop-color="#EF877E"/>
<stop offset="1" stop-color="#FABEB2"/>
</linearGradient>
<linearGradient id="paint69_linear_3_825" x1="142.274" y1="107.895" x2="144.587" y2="110.461" gradientUnits="userSpaceOnUse">
<stop stop-color="#EF877E"/>
<stop offset="1" stop-color="#FABEB2"/>
</linearGradient>
</defs>
</svg>
